<?xml version="1.0" encoding="UTF-8" standalone="no" ?>
<!DOCTYPE svg PUBLIC "-//W3C//DTD SVG 1.1//EN" "http://www.w3.org/Graphics/SVG/1.1/DTD/svg11.dtd">
<svg xmlns="http://www.w3.org/2000/svg" xmlns:xlink="http://www.w3.org/1999/xlink" version="1.1" width="1024" height="599" viewBox="0 0 1024 599" xml:space="preserve">
<desc>Created with Fabric.js 4.4.0</desc>
<defs>
</defs>
<g transform="matrix(1.505946093956724 0 0 1.5059460939567242 512.0303284747574 298.1790427678779)" id="background-e39f08c4-68f3-4111-83ad-4b747ec950da"  >
<rect style="stroke: none; stroke-width: 0; stroke-dasharray: none; stroke-linecap: butt; stroke-dashoffset: 0; stroke-linejoin: miter; stroke-miterlimit: 4; fill: rgb(51,112,255); fill-rule: nonzero; opacity: 1;"  paint-order="stroke"  x="-340" y="-199" rx="0" ry="0" width="680" height="398" />
</g>
<g transform="matrix(3.9189845321495453 0 0 3.9189845321495453 681.7677263049002 562.8481923651339)" id="shape-5"  >
<polygon style="stroke: none; stroke-width: 0; stroke-dasharray: none; stroke-linecap: butt; stroke-dashoffset: 0; stroke-linejoin: miter; stroke-miterlimit: 4; fill: rgb(183,233,245); fill-rule: nonzero; opacity: 1;"  paint-order="stroke"  points="-64.22999999999999,10.799999999999983 -47.249999999999986,-9.300000000000011 65.4,-9.300000000000011 65.4,-10.800000000000011 -47.95999999999998,-10.800000000000011 -65.39999999999998,9.859999999999985 " />
</g>
<g transform="matrix(3.9189845321495453 0 0 3.9189845321495453 870.7999452131337 22.57698476299754)" id="shape-10"  >
<polygon style="stroke: none; stroke-width: 0; stroke-dasharray: none; stroke-linecap: butt; stroke-dashoffset: 0; stroke-linejoin: miter; stroke-miterlimit: 4; fill: rgb(183,233,245); fill-rule: nonzero; opacity: 1;"  paint-order="stroke"  points="-39.185,-6.49 -39.185,-6.49 39.185,-6.49 39.185,6.49 -26.745000000000005,6.49 -39.185,-6.49 -39.185,-6.49 " />
</g>
<g transform="matrix(3.9189845321495453 0 0 3.9189845321495453 980.0220441241414 549.4256703425218)" id="shape-8"  >
<polygon style="stroke: none; stroke-width: 0; stroke-dasharray: none; stroke-linecap: butt; stroke-dashoffset: 0; stroke-linejoin: miter; stroke-miterlimit: 4; fill: rgb(183,233,245); fill-rule: nonzero; opacity: 1;"  paint-order="stroke"  points="-130.255,12.734999999999985 -119.61500000000001,0.4949999999999761 86.065,0.4949999999999761 99.305,-12.735000000000014 130.255,-12.735000000000014 130.255,12.734999999999985 " />
</g>
<g transform="matrix(3.9189845321495453 0 0 3.9189845321495453 1047.5657425357385 519.817742202132)" id="shape-7"  >
<polygon style="stroke: none; stroke-width: 0; stroke-dasharray: none; stroke-linecap: butt; stroke-dashoffset: 0; stroke-linejoin: miter; stroke-miterlimit: 4; fill: rgb(183,233,245); fill-rule: nonzero; opacity: 1;"  paint-order="stroke"  points="-76.59999999999997,5.539999999999992 66.24000000000007,5.539999999999992 76.60000000000002,-4.8300000000000125 75.90000000000003,-5.540000000000006 65.82000000000005,4.539999999999992 -76.59999999999997,4.539999999999992 " />
</g>
<g transform="matrix(3.9189845321495453 0 0 3.9189845321495453 935.9530630601198 522.8353602918869)" id="shape-6"  >
<circle style="stroke: none; stroke-width: 0; stroke-dasharray: none; stroke-linecap: butt; stroke-dashoffset: 0; stroke-linejoin: miter; stroke-miterlimit: 4; fill: rgb(183,233,245); fill-rule: nonzero; opacity: 1;"  paint-order="stroke"  cx="0" cy="0" r="2.18" />
</g>
<g transform="matrix(3.9189845321495453 0 0 3.9189845321495453 970.81243047359 432.4439820578578)" id="shape-4"  >
<path style="stroke: none; stroke-width: 0; stroke-dasharray: none; stroke-linecap: butt; stroke-dashoffset: 0; stroke-linejoin: miter; stroke-miterlimit: 4; fill: rgb(183,233,245); fill-rule: nonzero; opacity: 1;"  paint-order="stroke"  transform=" translate(-246.835, -111.075)" d="M 248.97 108.94 C 247.79 107.75999999999999 245.88 107.75999999999999 244.7 108.94 C 243.51999999999998 110.12 243.51999999999998 112.03 244.7 113.21 C 245.88 114.39 247.79 114.39 248.97 113.21 C 250.15 112.03 250.15 110.12 248.97 108.94 z M 248.84 112.78 C 248.70000000000002 112.65 248.55 112.54 248.39000000000001 112.45 C 248.50000000000003 112.09 248.56 111.69 248.57000000000002 111.27 L 249.46 111.27 C 249.42 111.83 249.21 112.36 248.84 112.78 L 248.84 112.78 z M 244.2 111.27 L 245.08999999999997 111.27 C 245.09999999999997 111.69 245.17 112.08999999999999 245.26999999999998 112.45 C 245.10999999999999 112.55 244.95999999999998 112.66 244.82 112.78 C 244.46 112.36 244.24 111.83 244.2 111.27 z M 244.82 109.37 C 244.95999999999998 109.5 245.10999999999999 109.61 245.26999999999998 109.7 C 245.15999999999997 110.06 245.1 110.46000000000001 245.08999999999997 110.88000000000001 L 244.2 110.88000000000001 C 244.24 110.32 244.46 109.8 244.82 109.37 z M 246.64 109.75 C 246.32999999999998 109.73 246.01999999999998 109.65 245.73999999999998 109.52 C 245.89999999999998 109.1 246.2 108.58999999999999 246.64 108.47 L 246.64 109.75 z M 246.64 110.13 L 246.64 110.88 L 245.48 110.88 C 245.48999999999998 110.53 245.54 110.19 245.63 109.88 C 245.94 110.03 246.28 110.11 246.64 110.13 z M 246.64 111.27 L 246.64 112.02 C 246.27999999999997 112.03999999999999 245.94 112.13 245.61999999999998 112.25999999999999 C 245.53999999999996 111.94999999999999 245.48999999999998 111.60999999999999 245.46999999999997 111.25999999999999 L 246.64 111.25999999999999 z M 246.64 112.41 L 246.64 113.69 C 246.20999999999998 113.56 245.91 113.06 245.73999999999998 112.64 C 246.02 112.51 246.33 112.43 246.64 112.41 z M 247.03 112.41 C 247.34 112.42999999999999 247.65 112.50999999999999 247.93 112.64 C 247.77 113.06 247.47 113.56 247.03 113.69 L 247.03 112.41 z M 247.03 112.02 L 247.03 111.27 L 248.19 111.27 C 248.18 111.61999999999999 248.13 111.96 248.04 112.27 C 247.72 112.13 247.38 112.05 247.03 112.02 L 247.03 112.02 z M 247.03 110.89 L 247.03 110.14 C 247.39000000000001 110.12 247.73 110.03 248.05 109.9 C 248.13000000000002 110.21000000000001 248.18 110.55000000000001 248.20000000000002 110.9 L 247.03 110.9 z M 247.03 109.75 L 247.03 108.47 C 247.46 108.6 247.76 109.1 247.93 109.52 C 247.64 109.65 247.34 109.72 247.03 109.75 z M 247.89 108.66 C 248.14 108.77 248.36999999999998 108.91 248.57 109.1 C 248.47 109.19 248.37 109.27 248.26 109.33999999999999 C 248.17 109.09 248.05 108.86 247.89 108.66 z M 245.4 109.33 C 245.29 109.26 245.19 109.17999999999999 245.09 109.09 C 245.3 108.91 245.53 108.76 245.77 108.65 C 245.62 108.86 245.5 109.09 245.4 109.33 L 245.4 109.33 z M 245.4 112.82 C 245.5 113.05999999999999 245.62 113.28999999999999 245.77 113.49 C 245.52 113.38 245.29000000000002 113.24 245.09 113.05 C 245.19 112.97 245.29 112.89 245.4 112.82 z M 248.26 112.82 C 248.37 112.88999999999999 248.47 112.97 248.57 113.05999999999999 C 248.35999999999999 113.24 248.13 113.38999999999999 247.89 113.49999999999999 C 248.05 113.29 248.17 113.06 248.26 112.82 L 248.26 112.82 z M 248.57 110.89 C 248.56 110.47 248.48999999999998 110.07000000000001 248.39 109.71 C 248.54999999999998 109.61 248.7 109.5 248.83999999999997 109.38 C 249.2 109.81 249.42 110.33 249.45999999999998 110.89 L 248.57 110.89 z" stroke-linecap="round" />
</g>
<g transform="matrix(3.9189845321495453 0 0 3.9189845321495453 970.6724030640437 341.84259637921053)" id="shape-3"  >
<path style="stroke: none; stroke-width: 0; stroke-dasharray: none; stroke-linecap: butt; stroke-dashoffset: 0; stroke-linejoin: miter; stroke-miterlimit: 4; fill: rgb(183,233,245); fill-rule: nonzero; opacity: 1;"  paint-order="stroke"  transform=" translate(-246.83, -89.49375)" d="M 246.83 86.36 C 245.58 86.36 244.56 87.38 244.56 88.63 C 244.56 90.17999999999999 246.59 92.46 246.68 92.56 C 246.76000000000002 92.65 246.9 92.65 246.98000000000002 92.56 C 247.07000000000002 92.46000000000001 249.10000000000002 90.18 249.10000000000002 88.63 C 249.1 87.38 248.08 86.36 246.83 86.36 z M 246.83 89.77 C 246.20000000000002 89.77 245.69000000000003 89.25999999999999 245.69000000000003 88.63 C 245.69000000000003 88 246.20000000000002 87.49 246.83 87.49 C 247.46 87.49 247.97 88 247.97 88.63 C 247.97 89.26 247.46 89.77 246.83 89.77 z" stroke-linecap="round" />
</g>
<g transform="matrix(3.9189845321495453 0 0 3.9189845321495453 220.87555040145276 297.2261446904803)" id="shape-5_1_"  >
<path style="stroke: none; stroke-width: 0; stroke-dasharray: none; stroke-linecap: butt; stroke-dashoffset: 0; stroke-linejoin: miter; stroke-miterlimit: 4; fill: rgb(183,233,245); fill-rule: nonzero; opacity: 1;"  paint-order="stroke"  transform=" translate(-55.47499999999999, -76.57171572875257)" d="M 14.03 133.96 L 13.79 133.83 C 5.93 129.48 -1.1 123.38 -6.53 116.2 L -6.69 115.99000000000001 L -22.2 127.73 L -22.04 127.94 C -14.879999999999999 137.4 -6 145.1 4.359999999999999 150.84 L 4.6 150.97 L 14.03 133.96 z M -6.79 116.74 C -1.3899999999999997 123.81 5.55 129.82999999999998 13.3 134.17 L 4.4 150.23999999999998 C -5.719999999999999 144.58999999999997 -14.409999999999998 137.05999999999997 -21.439999999999998 127.82999999999998 L -6.79 116.74 z M -10.18 110.83 L -10.32 110.6 C -15.030000000000001 102.8 -17.98 94.25999999999999 -19.1 85.22 L -19.130000000000003 84.95 L -38.43000000000001 87.33 L -38.400000000000006 87.6 C -36.95 99.38 -33.10000000000001 110.50999999999999 -26.970000000000006 120.66 L -26.830000000000005 120.89 L -10.18 110.83 z M -19.6 85.55 C -18.46 94.47999999999999 -15.540000000000003 102.92 -10.920000000000002 110.65 L -26.650000000000002 120.15 C -32.620000000000005 110.2 -36.38 99.32000000000001 -37.84 87.80000000000001 L -19.6 85.55 z M -19.58 78.39 C -19.74 69.26 -18.04 60.400000000000006 -14.509999999999998 52.07 L -14.409999999999998 51.82 L -32.32 44.24 L -32.42 44.49 C -37.010000000000005 55.35 -39.230000000000004 66.87 -39.02 78.74000000000001 L -39.010000000000005 79.09 L -19.560000000000006 78.74000000000001 L -19.58 78.39 z M -32.04 44.95 L -15.119999999999997 52.11 C -18.58 60.379999999999995 -20.259999999999998 69.17 -20.129999999999995 78.22 L -38.5 78.55 C -38.68 66.9 -36.51 55.6 -32.04 44.95 z M -11.56 45.98 C -7.210000000000001 38.12 -1.120000000000001 31.089999999999996 6.0600000000000005 25.65 L 6.2700000000000005 25.49 L -5.48 9.99 L -5.69 10.15 C -15.14 17.310000000000002 -22.84 26.200000000000003 -28.580000000000002 36.57 L -28.71 36.81 L -11.690000000000001 46.22 L -11.56 45.98 z M -5.58 10.74 L 5.52 25.380000000000003 C -1.5500000000000007 30.78 -7.5600000000000005 37.730000000000004 -11.900000000000002 45.480000000000004 L -27.98 36.59 C -22.34 26.47 -14.8 17.78 -5.58 10.74 z M 11.66 21.85 C 19.45 17.14 27.99 14.180000000000001 37.04 13.060000000000002 L 37.31 13.030000000000003 L 34.92 -6.269999999999998 L 34.65 -6.2399999999999975 C 22.87 -4.78 11.75 -0.93 1.59 5.21 L 1.36 5.35 L 11.43 21.990000000000002 L 11.66 21.85 z M 34.45 -5.67 L 36.71 12.569999999999999 C 27.78 13.709999999999999 19.34 16.64 11.620000000000001 21.259999999999998 L 2.11 5.54 C 12.05 -0.44 22.93 -4.21 34.45 -5.67 z M 78.01 -0.18 L 77.76 -0.28 C 66.92 -4.86 55.41 -7.07 43.55 -6.86 L 43.16 -6.8500000000000005 L 43.51 12.599999999999998 L 43.9 12.589999999999998 C 53.019999999999996 12.429999999999998 61.87 14.129999999999999 70.19 17.639999999999997 L 70.44 17.74 L 78.01 -0.18 z M 43.71 -6.33 C 55.35 -6.5200000000000005 66.65 -4.35 77.31 0.11000000000000032 L 70.16 17.04 C 61.879999999999995 13.579999999999998 53.099999999999994 11.899999999999999 44.03999999999999 12.049999999999999 L 43.71 -6.33 z M 59.89 162.58 L 59.08 152.22000000000003 C 58.29 152.29000000000002 57.489999999999995 152.34000000000003 56.699999999999996 152.37000000000003 L 57.19 162.76000000000005 C 58.08 162.72 58.99 162.66 59.89 162.58 z M 70.58 161.01 L 68.48 150.82999999999998 C 67.72 150.98999999999998 66.93 151.14999999999998 66.15 151.29 L 67.93 161.53 C 68.82 161.36 69.71 161.19 70.58 161.01 z M 80.98 158.03 L 77.62 148.22 C 76.89 148.48 76.13000000000001 148.74 75.36 148.99 L 78.42 158.91 C 79.29 158.62 80.15 158.32 80.98 158.03 z M 90.92 153.7 L 86.35 144.41 C 85.64999999999999 144.77 84.92999999999999 145.13 84.22 145.46 L 88.5 154.89000000000001 C 89.3 154.52 90.12 154.12 90.92 153.7 z M 100.23 148.11 L 94.54 139.5 C 93.89 139.95 93.22000000000001 140.4 92.55000000000001 140.83 L 97.97000000000001 149.63000000000002 C 98.73 149.13 99.5 148.62 100.23 148.11 z M 108.77 141.35 L 102.06 133.54999999999998 C 101.47 134.07999999999998 100.86 134.60999999999999 100.25 135.13 L 106.73 143.14 C 107.41 142.55 108.1 141.95 108.77 141.35 z M 116.4 133.52 L 108.76 126.66000000000001 C 108.24000000000001 127.27000000000001 107.7 127.87 107.16000000000001 128.47 L 114.57000000000001 135.57 C 115.2 134.9 115.82 134.2 116.4 133.52 z M 123 124.76 L 114.58 118.95 C 114.14 119.62 113.67999999999999 120.29 113.22 120.95 L 121.46 127.03 C 121.98 126.29 122.5 125.52 123 124.76 z M 128.45 115.21 L 119.36999999999999 110.55 C 119.02 111.27 118.64999999999999 111.99 118.27 112.72 L 127.19999999999999 117.67999999999999 C 127.63 116.85 128.05 116.03 128.45 115.21 z M 132.66 105.01 L 123.07 101.59 C 122.80999999999999 102.36 122.52999999999999 103.13000000000001 122.25 103.87 L 131.73 107.62 C 132.05 106.77 132.36 105.89 132.66 105.01 z M 135.55 94.36 L 125.61000000000001 92.23 C 125.45000000000002 93.02000000000001 125.27000000000001 93.82000000000001 125.09000000000002 94.60000000000001 L 134.96 97.06 C 135.16 96.17 135.37 95.26 135.55 94.36 z M 137.08 83.41 L 126.95000000000002 82.61 C 126.89000000000001 83.42 126.82000000000002 84.23 126.73000000000002 85.03 L 136.82000000000002 86.17 C 136.93 85.25 137.01 84.33 137.08 83.41 z M 137.33 75.07 C 137.31 74.16999999999999 137.28 73.25999999999999 137.25 72.36 L 127.1 72.86 C 127.14 73.65 127.16999999999999 74.45 127.17999999999999 75.3 L 137.33 75.07 z M 136.46 64.11 C 136.33 63.19 136.19 62.269999999999996 136.03 61.37 L 126.03 63.199999999999996 C 126.17 63.98 126.29 64.78999999999999 126.41 65.6 L 136.46 64.11 z M 134.22 53.3 C 133.97 52.419999999999995 133.72 51.519999999999996 133.45 50.65 L 123.75999999999999 53.78 C 123.99999999999999 54.550000000000004 124.21999999999998 55.34 124.44 56.11 L 134.22 53.3 z M 130.63 42.86 C 130.28 42.019999999999996 129.91 41.17 129.53 40.339999999999996 L 120.31 44.72 C 120.64 45.449999999999996 120.96000000000001 46.199999999999996 121.27 46.93 L 130.63 42.86 z M 125.77 32.99 C 125.32 32.2 124.83999999999999 31.400000000000002 124.36 30.630000000000003 L 115.77 36.190000000000005 C 116.19 36.870000000000005 116.6 37.57000000000001 117.00999999999999 38.260000000000005 L 125.77 32.99 z M 119.71 23.84 C 119.16 23.12 118.6 22.39 118.02 21.68 L 110.19 28.31 C 110.69 28.939999999999998 111.19 29.58 111.67 30.2 L 119.71 23.84 z M 112.58 15.55 C 111.95 14.9 111.28999999999999 14.25 110.63 13.63 L 103.69 21.23 C 104.27 21.78 104.84 22.35 105.39999999999999 22.92 L 112.58 15.55 z M 104.46 8.26 C 103.75 7.699999999999999 103.02 7.1499999999999995 102.28999999999999 6.609999999999999 L 96.35 15.049999999999999 C 96.99 15.52 97.63 16.02 98.25999999999999 16.5 L 104.46 8.26 z M 95.49 2.09 C 94.71 1.63 93.91 1.17 93.13 0.7399999999999998 L 88.3 9.88 C 88.99 10.260000000000002 89.69 10.66 90.38 11.08 L 95.49 2.09 z M 85.83 -2.86 C 85 -3.2199999999999998 84.16 -3.57 83.32 -3.8899999999999997 L 79.67999999999999 5.81 C 80.41999999999999 6.1 81.16 6.409999999999999 81.88999999999999 6.72 L 85.83 -2.86 z M 75.62 -6.5 C 74.75 -6.74 73.87 -6.98 73 -7.2 L 70.61 2.92 C 71.37 3.11 72.15 3.32 72.9 3.53 L 75.62 -6.5 z M 65.03 -8.76 C 64.15 -8.89 63.24 -9 62.35 -9.11 L 61.25 1.2300000000000004 C 62.03 1.3200000000000005 62.83 1.4200000000000004 63.61 1.5300000000000005 L 65.03 -8.76 z M 54.27 -9.61 C 53.370000000000005 -9.62 52.470000000000006 -9.62 51.57 -9.6 L 51.75 0.8000000000000007 C 52.54 0.7800000000000007 53.34 0.7800000000000007 54.13 0.7900000000000007 L 54.27 -9.61 z M 46.21 19.29 C 14.18 19.87 -11.32 46.3 -10.75 78.34 C -10.17 110.37 16.26 135.88 48.3 135.31 C 80.33 134.73 105.84 108.3 105.27 76.26 C 104.69 44.22 78.25 18.72 46.21 19.29 z M 55.86 149.71 L 54.82 142.6 C 52.04 143.01 49.2 143.23999999999998 46.370000000000005 143.29 C 35.53 143.48999999999998 24.730000000000004 141 15.140000000000004 136.09 L 11.870000000000005 142.48 C 22.510000000000005 147.92 34.480000000000004 150.67999999999998 46.50000000000001 150.45999999999998 C 49.63 150.41 52.78 150.16 55.86 149.71 z M 121.43 75.9 C 121.2 63.290000000000006 117.72000000000001 50.91000000000001 111.36000000000001 40.10000000000001 L 105.17000000000002 43.74000000000001 C 110.91000000000001 53.48000000000001 114.05000000000001 64.65 114.25000000000001 76.03 C 114.50000000000001 89.86 110.51000000000002 103.18 102.72000000000001 114.53999999999999 L 108.64000000000001 118.6 C 117.28 106 121.7 91.24 121.43 75.9 z M -18.44 95.15 C -19.96 89.73 -20.790000000000003 84.10000000000001 -20.89 78.41000000000001 C -21.04 70.36000000000001 -19.740000000000002 62.46000000000001 -17.060000000000002 54.95000000000001 L -23.82 52.53000000000001 C -26.8 60.86000000000001 -28.23 69.61000000000001 -28.07 78.54 C -27.96 84.84 -27.04 91.08000000000001 -25.35 97.09 L -18.44 95.15 z M 13.16 19.41 L 9.67 13.129999999999999 C -3.52 20.45 -14.38 31.97 -20.9 45.57 L -14.43 48.68 C -8.54 36.41 1.26 26.02 13.16 19.41 z M 43.99 11.16 C 49.150000000000006 11.07 54.31 11.57 59.300000000000004 12.66 L 60.830000000000005 5.640000000000001 C 55.290000000000006 4.430000000000001 49.580000000000005 3.8700000000000006 43.86000000000001 3.9800000000000004 C 34.35000000000001 4.15 25.130000000000006 6.11 16.450000000000006 9.82 L 19.270000000000007 16.43 C 27.09 13.08 35.41 11.31 43.99 11.16 z M 164.01 6.01 L 164.01999999999998 6.55 M -53.07 81.13 C -52.97 80.97 -52.88 80.81 -52.79 80.64999999999999" stroke-linecap="round" />
</g>
<g transform="matrix(0.27497260078544067 0 0 0.27497260078544067 971.007099933466 398.04601904384174)" id="shape-19-logo"  >
<g style=""  paint-order="stroke"   >
		<g transform="matrix(1 0 0 1 0 0)" id="Layer_1"  >
<path style="stroke: none; stroke-width: 1; stroke-dasharray: none; stroke-linecap: butt; stroke-dashoffset: 0; stroke-linejoin: miter; stroke-miterlimit: 4; fill: rgb(183,233,245); fill-rule: nonzero; opacity: 1;"  paint-order="stroke"  transform=" translate(-50, -37)" d="M 100 62 C 100 64.2 99.4 66.2 98.4 68 L 66.8 32.7 L 98.1 5.4 C 99.3 7.300000000000001 100 9.600000000000001 100 12 L 100 62 L 100 62 z M 50 39.1 L 93.5 1.1000000000000014 C 91.7 0.10000000000000142 89.7 -0.49999999999999867 87.5 -0.49999999999999867 L 12.5 -0.49999999999999867 C 10.3 -0.49999999999999867 8.3 0.10000000000000131 6.5 1.1000000000000014 L 50 39.1 z M 62.1 36.8 L 52 45.599999999999994 C 51.4 46.099999999999994 50.7 46.39999999999999 49.9 46.39999999999999 C 49.199999999999996 46.39999999999999 48.4 46.099999999999994 47.8 45.599999999999994 L 37.699999999999996 36.8 L 5.699999999999996 72.6 C 7.599999999999996 73.8 9.899999999999995 74.5 12.299999999999995 74.5 L 87.3 74.5 C 89.7 74.5 92 73.8 93.89999999999999 72.6 L 62.1 36.8 z M 1.9 5.4 C 0.7 7.3 0 9.6 0 12 L 0 62 C 0 64.2 0.6 66.2 1.6 68 L 33.2 32.7 L 1.9 5.4 z" stroke-linecap="round" />
</g>
</g>
</g>
<g transform="matrix(1.505946093956724 0 0 1.5059460939567242 846.0770526187127 185.84471582964665)" id="text-1-path-group"  >
<g style=""  paint-order="stroke"   >
		<g transform="matrix(1 0 0 1 0 0)" id="text-1-path-0"  >
<path style="stroke: none; stroke-width: 1.5517241379310338; stroke-dasharray: none; stroke-linecap: butt; stroke-dashoffset: 0; stroke-linejoin: miter; stroke-miterlimit: 4; fill: rgb(183,233,245); fill-rule: nonzero; opacity: 1;"  paint-order="stroke"  transform=" translate(-84.78, 9.515000000000004)" d="M 1.48 -1.13 L 1.48 -1.13 Q 2.38 -3.69 3.13 -8.23 Q 3.87 -12.78 4.43 -16.96 Q 5 -21.15 5.76 -25.11 Q 6.52 -29.07 7.88 -31.48 Q 9.22 -33.88 11.12 -33.88 L 11.12 -33.88 Q 12.82 -33.88 13.72 -32.78 Q 14.63 -31.68 14.63 -30.51 L 14.63 -30.51 Q 14.63 -29.52 14.13 -28.28 Q 13.63 -27.04 12.98 -25.99 Q 12.33 -24.93 11.29 -23.63 Q 10.26 -22.32 9.58 -21.55 Q 8.91 -20.79 7.96 -19.75 Q 7.02 -18.72 6.93 -18.63 L 6.93 -18.63 L 6.66 -16.52 Q 8.05 -18.4 10.55 -20.09 Q 13.05 -21.78 14.85 -21.78 L 14.85 -21.78 Q 19.48 -21.78 19.48 -17.05 L 19.48 -17.05 Q 19.48 -14.58 17.57 -10.69 Q 15.66 -6.79 15.66 -4.86 L 15.66 -4.86 Q 15.66 -1.4 18.31 -1.4 L 18.31 -1.4 Q 19.89 -1.4 21.13 -2.59 Q 22.36 -3.78 22.36 -5.26 L 22.36 -5.26 Q 22.36 -6.39 21.69 -7.29 L 21.69 -7.29 Q 21.51 -6.57 20.88 -5.92 Q 20.25 -5.26 19.35 -5.26 L 19.35 -5.26 Q 18.63 -5.26 18.18 -5.87 Q 17.73 -6.48 17.73 -7.2 L 17.73 -7.2 Q 17.73 -8.14 18.47 -8.93 Q 19.21 -9.72 20.61 -9.72 L 20.61 -9.72 Q 22.14 -9.72 23.15 -8.39 Q 24.16 -7.06 24.16 -5.17 L 24.16 -5.17 Q 24.16 -2.61 22.52 -1.06 Q 20.88 0.49 18.31 0.49 L 18.31 0.49 Q 15.93 0.49 14.65 -0.94 Q 13.37 -2.38 13.37 -4.63 L 13.37 -4.63 Q 13.37 -6.79 15.3 -10.69 Q 17.23 -14.58 17.23 -16.83 L 17.23 -16.83 Q 17.23 -19.44 14.67 -19.44 L 14.67 -19.44 Q 13 -19.44 10.46 -17.55 Q 7.92 -15.66 6.25 -13.32 L 6.25 -13.32 Q 5.13 -4.09 3.46 0.45 L 3.46 0.45 Q 3.42 0.58 3.1 0.58 L 3.1 0.58 Q 2.38 0.58 1.87 0.27 Q 1.35 -0.04 1.35 -0.54 L 1.35 -0.54 Q 1.35 -0.72 1.48 -1.13 Z M 9.22 -29.11 L 9.22 -29.11 Q 8.14 -26.19 7.51 -22.36 L 7.51 -22.36 Q 9.45 -24.39 10.87 -26.59 Q 12.29 -28.8 12.29 -30.24 L 12.29 -30.24 Q 12.29 -30.82 11.97 -31.32 Q 11.65 -31.81 11.07 -31.81 L 11.07 -31.81 Q 10.21 -31.81 9.22 -29.11 Z M 35.19 -33.88 L 35.19 -33.88 Q 36.85 -33.88 37.94 -32.8 Q 39.02 -31.72 39.02 -30.06 L 39.02 -30.06 Q 39.02 -28.17 37.75 -27.04 Q 36.49 -25.92 34.78 -25.92 Q 33.08 -25.92 31.99 -26.95 Q 30.91 -27.99 30.91 -29.65 Q 30.91 -31.32 32.11 -32.6 Q 33.3 -33.88 35.19 -33.88 Z M 35.01 -31.59 L 35.01 -31.59 Q 34.16 -31.59 33.55 -31.12 Q 32.94 -30.64 32.94 -29.74 L 32.94 -29.74 Q 32.94 -28.13 34.78 -28.13 L 34.78 -28.13 Q 35.64 -28.13 36.27 -28.57 Q 36.9 -29.02 36.9 -29.92 L 36.9 -29.92 Q 36.9 -31.59 35.01 -31.59 Z M 36.95 -2.79 L 36.95 -2.79 Q 35.77 -3.33 35.77 -4.54 L 35.77 -4.54 Q 35.77 -5.4 36.36 -6.03 Q 36.95 -6.66 37.84 -6.66 L 37.84 -6.66 Q 38.7 -6.66 39.33 -5.98 Q 39.96 -5.31 39.96 -4.41 L 39.96 -4.41 Q 39.96 -2.34 37.66 -0.94 Q 35.37 0.45 33.03 0.45 L 33.03 0.45 Q 31.23 0.45 30.04 -0.49 Q 28.84 -1.44 28.84 -3.28 L 28.84 -3.28 Q 28.84 -5.31 30.2 -8.62 Q 31.54 -11.92 32.89 -14.92 Q 34.24 -17.91 34.24 -19.13 L 34.24 -19.13 Q 34.24 -20.29 33.08 -20.29 L 33.08 -20.29 Q 32.09 -20.29 30.62 -19.57 Q 29.16 -18.86 28.71 -18.13 L 28.71 -18.13 Q 29.25 -17.95 29.63 -17.5 Q 30.02 -17.05 30.02 -16.47 L 30.02 -16.47 Q 30.02 -15.75 29.52 -15.21 Q 29.02 -14.67 28.35 -14.67 L 28.35 -14.67 Q 26.68 -14.67 26.68 -17.37 L 26.68 -17.37 Q 26.68 -19.48 28.69 -20.84 Q 30.69 -22.18 32.98 -22.18 L 32.98 -22.18 Q 34.52 -22.18 35.5 -21.38 Q 36.49 -20.56 36.49 -18.99 L 36.49 -18.99 Q 36.49 -17.95 35.17 -14.98 Q 33.84 -12.01 32.53 -8.75 Q 31.23 -5.49 31.23 -3.65 L 31.23 -3.65 Q 31.23 -1.57 33.16 -1.57 L 33.16 -1.57 Q 35.59 -1.57 36.95 -2.79 Z M 51.48 -33.88 L 51.48 -33.88 Q 53.14 -33.88 54.22 -32.8 Q 55.3 -31.72 55.3 -30.06 L 55.3 -30.06 Q 55.3 -28.17 54.05 -27.04 Q 52.78 -25.92 51.07 -25.92 Q 49.36 -25.92 48.28 -26.95 Q 47.2 -27.99 47.2 -29.65 Q 47.2 -31.32 48.4 -32.6 Q 49.59 -33.88 51.48 -33.88 Z M 51.3 -31.59 L 51.3 -31.59 Q 50.45 -31.59 49.84 -31.12 Q 49.23 -30.64 49.23 -29.74 L 49.23 -29.74 Q 49.23 -28.13 51.07 -28.13 L 51.07 -28.13 Q 51.93 -28.13 52.56 -28.57 Q 53.19 -29.02 53.19 -29.92 L 53.19 -29.92 Q 53.19 -31.59 51.3 -31.59 Z M 53.23 -2.79 L 53.23 -2.79 Q 52.06 -3.33 52.06 -4.54 L 52.06 -4.54 Q 52.06 -5.4 52.65 -6.03 Q 53.23 -6.66 54.13 -6.66 L 54.13 -6.66 Q 54.99 -6.66 55.62 -5.98 Q 56.25 -5.31 56.25 -4.41 L 56.25 -4.41 Q 56.25 -2.34 53.95 -0.94 Q 51.66 0.45 49.32 0.45 L 49.32 0.45 Q 47.52 0.45 46.33 -0.49 Q 45.13 -1.44 45.13 -3.28 L 45.13 -3.28 Q 45.13 -5.31 46.48 -8.62 Q 47.84 -11.92 49.18 -14.92 Q 50.53 -17.91 50.53 -19.13 L 50.53 -19.13 Q 50.53 -20.29 49.36 -20.29 L 49.36 -20.29 Q 48.38 -20.29 46.91 -19.57 Q 45.45 -18.86 45 -18.13 L 45 -18.13 Q 45.54 -17.95 45.92 -17.5 Q 46.3 -17.05 46.3 -16.47 L 46.3 -16.47 Q 46.3 -15.75 45.81 -15.21 Q 45.31 -14.67 44.64 -14.67 L 44.64 -14.67 Q 42.98 -14.67 42.98 -17.37 L 42.98 -17.37 Q 42.98 -19.48 44.98 -20.84 Q 46.98 -22.18 49.27 -22.18 L 49.27 -22.18 Q 50.8 -22.18 51.8 -21.38 Q 52.78 -20.56 52.78 -18.99 L 52.78 -18.99 Q 52.78 -17.95 51.46 -14.98 Q 50.13 -12.01 48.82 -8.75 Q 47.52 -5.49 47.52 -3.65 L 47.52 -3.65 Q 47.52 -1.57 49.45 -1.57 L 49.45 -1.57 Q 51.88 -1.57 53.23 -2.79 Z M 63.22 1.44 L 63.22 1.44 Q 64.22 1.44 64.98 1.08 Q 65.75 0.72 66.31 -0.07 Q 66.87 -0.85 67.27 -1.73 Q 67.68 -2.61 67.93 -3.98 Q 68.17 -5.35 68.35 -6.55 Q 68.53 -7.74 68.63 -9.52 Q 68.72 -11.29 68.78 -12.62 Q 68.85 -13.95 68.92 -15.93 Q 68.98 -17.91 69.03 -19.17 L 69.03 -19.17 Q 67.95 -19.08 67.45 -19.08 L 67.45 -19.08 Q 64.48 -19.08 63.43 -18.52 Q 62.37 -17.95 62.37 -15.97 L 62.37 -15.97 Q 62.37 -15.34 62.66 -14.85 Q 62.95 -14.35 63.49 -14.35 L 63.49 -14.35 Q 63.72 -14.35 63.85 -14.4 L 63.85 -14.4 Q 63.67 -14.76 63.67 -15.25 L 63.67 -15.25 Q 63.67 -15.97 64.17 -16.49 Q 64.66 -17.01 65.34 -17.01 L 65.34 -17.01 Q 66.06 -17.01 66.53 -16.52 Q 67 -16.02 67 -15.25 L 67 -15.25 Q 67 -14.04 66.15 -13.37 Q 65.3 -12.69 64.03 -12.69 L 64.03 -12.69 Q 62.55 -12.69 61.4 -13.68 Q 60.25 -14.67 60.25 -16.47 L 60.25 -16.47 Q 60.25 -17.95 60.82 -18.92 Q 61.38 -19.89 62.5 -20.29 Q 63.63 -20.7 64.66 -20.84 Q 65.7 -20.97 67.27 -20.97 L 67.27 -20.97 Q 68.22 -20.97 69.16 -21.11 L 69.16 -21.11 Q 69.57 -27 70.88 -29.97 L 70.88 -29.97 Q 71.69 -31.9 73.01 -32.89 Q 74.34 -33.88 75.64 -33.88 L 75.64 -33.88 Q 77.08 -33.88 77.94 -32.67 Q 78.8 -31.45 78.8 -29.25 L 78.8 -29.25 Q 78.8 -25.29 76.75 -22.9 Q 74.7 -20.52 71.41 -19.57 L 71.41 -19.57 Q 71.41 -19.53 71.39 -19.39 Q 71.37 -19.26 71.37 -19.17 L 71.37 -19.17 Q 73.8 -17.64 75.6 -17.64 L 75.6 -17.64 Q 76.32 -17.64 77.08 -18.13 L 77.08 -18.13 Q 76.77 -18.86 76.77 -19.62 L 76.77 -19.62 Q 76.77 -21.29 78.21 -21.29 L 78.21 -21.29 Q 78.88 -21.29 79.33 -20.77 Q 79.78 -20.25 79.78 -19.44 L 79.78 -19.44 Q 79.78 -15.88 75.33 -15.88 L 75.33 -15.88 Q 73.39 -15.88 71.28 -17.05 L 71.28 -17.05 Q 70.88 -7.69 70.2 -4.32 L 70.2 -4.32 Q 68.72 3.01 64.08 3.38 L 64.08 3.38 Q 63.85 3.38 63.63 3.38 L 63.63 3.38 Q 61.38 3.38 60.07 2.21 Q 58.77 1.03 58.77 -1.3 L 58.77 -1.3 Q 58.77 -3.19 60.03 -4.3 Q 61.29 -5.4 62.77 -5.4 L 62.77 -5.4 Q 63.63 -5.4 64.22 -4.81 Q 64.8 -4.23 64.8 -3.38 Q 64.8 -2.52 64.22 -1.93 Q 63.63 -1.35 62.77 -1.35 L 62.77 -1.35 Q 61.52 -1.35 60.93 -2.25 L 60.93 -2.25 Q 60.66 -1.71 60.66 -0.94 L 60.66 -0.94 Q 60.66 0 61.36 0.72 Q 62.05 1.44 63.22 1.44 Z M 72.9 -29.11 L 72.9 -29.11 Q 71.95 -26.73 71.55 -21.69 L 71.55 -21.69 Q 76.63 -23.63 76.63 -29.38 L 76.63 -29.38 Q 76.63 -31.86 75.42 -31.86 L 75.42 -31.86 Q 74.07 -31.86 72.9 -29.11 Z M 91.08 0.4 L 91.08 0.4 Q 86.49 0.4 84.04 -2.18 Q 81.58 -4.77 81.58 -8.91 L 81.58 -8.91 Q 81.58 -10.39 81.97 -12.06 Q 82.35 -13.72 83.25 -15.52 Q 84.15 -17.32 85.5 -18.74 Q 86.85 -20.16 88.96 -21.08 Q 91.08 -22 93.64 -22 L 93.64 -22 Q 98.23 -22 100.71 -19.42 Q 103.18 -16.83 103.18 -12.69 L 103.18 -12.69 Q 103.18 -11.21 102.8 -9.52 Q 102.42 -7.83 101.47 -6.05 Q 100.53 -4.27 99.2 -2.86 Q 97.88 -1.44 95.76 -0.52 Q 93.64 0.4 91.08 0.4 Z M 91.08 -1.48 L 91.08 -1.48 Q 94.09 -1.48 96.39 -3.22 Q 98.68 -4.95 99.76 -7.38 Q 100.84 -9.81 100.84 -12.33 L 100.84 -12.33 Q 100.84 -14.26 100.26 -15.91 Q 99.67 -17.55 98.01 -18.83 Q 96.34 -20.11 93.73 -20.11 L 93.73 -20.11 Q 90.72 -20.11 88.4 -18.38 Q 86.08 -16.65 85 -14.22 Q 83.92 -11.79 83.92 -9.27 L 83.92 -9.27 Q 83.92 -7.33 84.51 -5.69 Q 85.09 -4.05 86.78 -2.77 Q 88.47 -1.48 91.08 -1.48 Z M 90.81 -11.97 L 90.81 -11.97 Q 89.91 -12.78 89.91 -13.14 L 89.91 -13.14 Q 89.91 -13.54 90.45 -13.88 Q 90.99 -14.22 91.48 -14.22 L 91.48 -14.22 Q 91.71 -14.22 91.84 -13.93 Q 91.98 -13.63 92.02 -13.09 Q 92.07 -12.55 92.07 -12.51 L 92.07 -12.51 Q 92.47 -12.51 92.83 -12.42 L 92.83 -12.42 Q 92.88 -12.46 93.04 -13 Q 93.19 -13.54 93.38 -13.79 Q 93.55 -14.04 93.78 -14.04 L 93.78 -14.04 Q 94.32 -14.04 94.86 -13.59 Q 95.4 -13.14 95.4 -12.64 L 95.4 -12.64 Q 95.4 -12.38 94 -11.74 L 94 -11.74 Q 94.23 -11.52 94.27 -11.29 L 94.27 -11.29 Q 95.35 -11.83 95.63 -11.83 L 95.63 -11.83 Q 96.48 -11.83 96.48 -10.84 L 96.48 -10.84 Q 96.48 -9.45 95.35 -9.45 L 95.35 -9.45 Q 95.22 -9.45 94.23 -9.86 L 94.23 -9.86 Q 94.18 -9.72 93.78 -9.31 L 93.78 -9.31 Q 94.81 -8.28 94.81 -7.92 L 94.81 -7.92 Q 94.81 -7.47 94.34 -7.18 Q 93.87 -6.88 93.33 -6.88 L 93.33 -6.88 Q 92.83 -6.88 92.61 -8.82 L 92.61 -8.82 Q 92.29 -8.73 91.98 -8.82 L 91.98 -8.82 Q 91.93 -8.78 91.71 -8.12 Q 91.48 -7.47 91.26 -7.15 Q 91.03 -6.84 90.81 -6.84 L 90.81 -6.84 Q 90.31 -6.84 89.77 -7.29 Q 89.23 -7.74 89.23 -8.23 L 89.23 -8.23 Q 89.23 -8.41 90.63 -9.45 L 90.63 -9.45 Q 90.45 -9.63 90.27 -9.99 L 90.27 -9.99 Q 90.04 -9.76 89.01 -9.76 L 89.01 -9.76 Q 88.29 -9.76 88.29 -10.75 L 88.29 -10.75 Q 88.29 -11.61 89.05 -11.61 L 89.05 -11.61 Q 90.09 -11.61 90.31 -11.43 L 90.31 -11.43 Q 90.49 -11.79 90.81 -11.97 Z M 91.3 -11.47 L 91.3 -11.47 Q 90.94 -11.12 90.94 -10.62 Q 90.94 -10.13 91.33 -9.74 Q 91.71 -9.36 92.2 -9.36 Q 92.7 -9.36 93.08 -9.74 Q 93.46 -10.13 93.46 -10.62 Q 93.46 -11.12 93.08 -11.5 Q 92.7 -11.88 92.2 -11.88 Q 91.71 -11.88 91.3 -11.47 Z M 110.92 -3.6 L 110.92 -3.6 Q 110.92 -2.43 109.44 -1.62 L 109.44 -1.62 Q 109.98 -1.4 110.47 -1.4 L 110.47 -1.4 Q 111.87 -1.4 113.35 -3.6 Q 114.84 -5.8 115.85 -8.78 Q 116.86 -11.74 117.52 -14.56 Q 118.17 -17.37 118.17 -18.81 L 118.17 -18.81 Q 118.17 -20.93 115.92 -20.93 L 115.92 -20.93 Q 113.58 -20.93 111.06 -19.06 Q 108.54 -17.19 108.54 -14.89 L 108.54 -14.89 Q 108.54 -13.81 109.08 -13.81 L 109.08 -13.81 Q 109.12 -13.81 109.21 -14.33 Q 109.3 -14.85 109.71 -15.34 Q 110.11 -15.84 110.92 -15.84 L 110.92 -15.84 Q 111.69 -15.84 112.23 -15.32 Q 112.77 -14.8 112.77 -14.04 L 112.77 -14.04 Q 112.77 -12.96 111.78 -12.38 Q 110.79 -11.79 109.53 -11.79 L 109.53 -11.79 Q 108.18 -11.79 107.26 -12.6 Q 106.33 -13.41 106.33 -15.12 L 106.33 -15.12 Q 106.33 -18.22 109.48 -20.65 Q 112.63 -23.09 116.19 -23.09 L 116.19 -23.09 Q 120.42 -23.09 120.42 -18.72 L 120.42 -18.72 Q 120.42 -18.59 120.33 -17.77 L 120.33 -17.77 Q 121.9 -19.39 124.22 -20.63 Q 126.54 -21.87 128.29 -21.87 L 128.29 -21.87 Q 132.34 -21.87 132.34 -17.41 L 132.34 -17.41 Q 132.34 -15.21 130.88 -10.64 Q 129.42 -6.08 129.42 -4.63 L 129.42 -4.63 Q 129.42 -3.24 130.41 -2.5 Q 131.4 -1.75 132.84 -1.75 L 132.84 -1.75 Q 134.46 -1.75 135.74 -2.77 Q 137.02 -3.78 137.02 -5.49 L 137.02 -5.49 Q 137.02 -6.43 136.46 -6.95 Q 135.9 -7.47 135.13 -7.47 L 135.13 -7.47 Q 134.59 -7.47 134.21 -7.22 Q 133.83 -6.97 133.83 -6.61 L 133.83 -6.61 Q 134.59 -5.98 134.59 -5 L 134.59 -5 Q 134.59 -4.23 134.08 -3.8 Q 133.56 -3.38 132.88 -3.38 L 132.88 -3.38 Q 132.16 -3.38 131.65 -3.82 Q 131.13 -4.27 131.13 -5.08 L 131.13 -5.08 Q 131.13 -6.75 132.03 -7.94 Q 132.93 -9.13 134.95 -9.13 L 134.95 -9.13 Q 136.57 -9.13 137.81 -8.03 Q 139.05 -6.93 139.05 -5.26 L 139.05 -5.26 Q 139.05 -2.65 137.16 -1.17 Q 135.27 0.32 132.75 0.32 L 132.75 0.32 Q 130.41 0.32 128.74 -0.99 Q 127.08 -2.29 127.08 -4.63 L 127.08 -4.63 Q 127.08 -6.52 128.61 -10.98 Q 130.14 -15.43 130.14 -17.5 Q 130.14 -19.57 128.29 -19.57 L 128.29 -19.57 Q 126.4 -19.57 123.86 -17.91 Q 121.32 -16.25 119.7 -14.35 L 119.7 -14.35 Q 119.16 -11.88 118.39 -9.52 Q 117.63 -7.15 116.53 -4.75 Q 115.42 -2.34 113.89 -0.85 Q 112.36 0.63 110.65 0.63 L 110.65 0.63 Q 109.17 0.63 107.98 -0.25 Q 106.78 -1.13 106.78 -2.75 L 106.78 -2.75 Q 106.78 -3.92 107.48 -4.54 Q 108.18 -5.17 109.08 -5.17 L 109.08 -5.17 Q 109.89 -5.17 110.41 -4.77 Q 110.92 -4.37 110.92 -3.6 Z M 154.89 -1.26 L 154.89 -1.26 Q 152.95 0.36 150.03 0.36 L 150.03 0.36 Q 146.11 0.36 144.16 -1.78 Q 142.2 -3.92 142.2 -7.29 L 142.2 -7.29 Q 142.2 -13.18 146.23 -17.39 Q 150.25 -21.6 155.03 -21.6 L 155.03 -21.6 Q 158 -21.6 159.57 -19.71 L 159.57 -19.71 Q 161.59 -22.72 163.98 -22.72 L 163.98 -22.72 Q 166 -22.72 167.11 -21.44 Q 168.21 -20.16 168.21 -18.4 L 168.21 -18.4 Q 168.21 -17.01 167.56 -15.86 Q 166.91 -14.71 165.6 -14.71 L 165.6 -14.71 Q 164.75 -14.71 164.16 -15.23 Q 163.57 -15.75 163.57 -16.52 Q 163.57 -17.28 164.16 -17.82 Q 164.75 -18.36 165.6 -18.36 L 165.6 -18.36 Q 166.09 -18.36 166.41 -18.18 L 166.41 -18.18 Q 166.45 -18.36 166.45 -18.68 L 166.45 -18.68 Q 166.45 -19.44 165.91 -19.98 Q 165.38 -20.52 164.52 -20.52 L 164.52 -20.52 Q 162.81 -20.52 161.55 -18.56 Q 160.29 -16.61 159.55 -13.5 Q 158.81 -10.39 158.13 -6.61 Q 157.45 -2.83 156.67 0.94 Q 155.88 4.72 154.82 7.83 Q 153.76 10.93 151.92 12.89 Q 150.07 14.85 147.6 14.85 Q 145.13 14.85 143.14 13.03 Q 141.16 11.21 141.16 8.73 L 141.16 8.73 Q 141.16 7.06 142.51 5.69 Q 143.86 4.32 146.11 3.49 Q 148.37 2.65 150.32 2.18 Q 152.28 1.71 154.39 1.4 L 154.39 1.4 Q 154.48 1.08 154.62 0.22 Q 154.75 -0.63 154.89 -1.26 Z M 155.38 -3.82 L 155.38 -3.82 Q 155.61 -4.95 156.1 -7.65 Q 156.6 -10.35 156.91 -11.79 Q 157.23 -13.23 157.75 -15.16 Q 158.26 -17.1 158.85 -18.36 L 158.85 -18.36 Q 157.09 -19.48 155.25 -19.48 L 155.25 -19.48 Q 150.97 -19.48 147.73 -15.73 Q 144.5 -11.97 144.5 -7.29 L 144.5 -7.29 Q 144.5 -4.81 146 -3.26 Q 147.51 -1.71 150.57 -1.71 L 150.57 -1.71 Q 153.31 -1.71 155.38 -3.82 Z M 147.33 12.73 L 147.33 12.73 Q 149.67 12.73 151.2 10.35 Q 152.73 7.96 153.81 3.69 L 153.81 3.69 Q 149.53 3.78 146.5 5.24 Q 143.46 6.71 143.46 8.96 L 143.46 8.96 Q 143.46 10.48 144.56 11.61 Q 145.66 12.73 147.33 12.73 Z M 151.02 -12.2 L 151.02 -12.2 Q 151.83 -13.18 153.09 -13.18 L 153.09 -13.18 Q 154.13 -13.18 154.84 -12.55 Q 155.56 -11.92 155.56 -10.8 L 155.56 -10.8 Q 155.56 -8.78 154.01 -7.4 Q 152.46 -6.03 150.88 -6.03 L 150.88 -6.03 Q 149.58 -6.03 148.32 -7.58 Q 147.06 -9.13 147.06 -11.12 L 147.06 -11.12 Q 147.06 -12.11 147.6 -12.73 Q 148.14 -13.37 148.95 -13.37 L 148.95 -13.37 Q 150.34 -13.37 151.02 -12.2 Z M 151.02 -10.84 L 151.02 -10.84 Q 150.84 -11.16 150.46 -11.45 Q 150.07 -11.74 149.81 -11.74 L 149.81 -11.74 Q 148.68 -11.74 148.68 -10.53 L 148.68 -10.53 Q 148.68 -9.36 149.49 -8.46 Q 150.3 -7.56 151.02 -7.56 L 151.02 -7.56 Q 151.88 -7.56 152.78 -8.41 Q 153.67 -9.27 153.67 -10.44 L 153.67 -10.44 Q 153.67 -11.65 152.37 -11.65 L 152.37 -11.65 Q 151.74 -11.65 151.02 -10.84 Z" stroke-linecap="round" />
</g>
</g>
</g>
<g transform="matrix(1.505946093956724 0 0 1.5059460939567242 718.8813639131988 217.5357459320421)" id="text-2-path-group"  >
<g style=""  paint-order="stroke"   >
		<g transform="matrix(1 0 0 1 0 0)" id="text-2-path-0"  >
<path style="stroke: none; stroke-width: 1; stroke-dasharray: none; stroke-linecap: butt; stroke-dashoffset: 0; stroke-linejoin: miter; stroke-miterlimit: 4; fill: rgb(183,233,245); fill-rule: nonzero; opacity: 1;"  paint-order="stroke"  transform=" translate(0, 0)" d="" stroke-linecap="round" />
</g>
</g>
</g>
<g transform="matrix(1.505946093956724 0 0 1.5059460939567242 899.1456227871229 340.325221095617)" id="text-4-path-group"  >
<g style=""  paint-order="stroke"   >
		<g transform="matrix(1 0 0 1 0 0)" id="text-4-path-0"  >
<path style="stroke: none; stroke-width: 1; stroke-dasharray: none; stroke-linecap: butt; stroke-dashoffset: 0; stroke-linejoin: miter; stroke-miterlimit: 4; fill: rgb(183,233,245); fill-rule: nonzero; opacity: 1;"  paint-order="stroke"  transform=" translate(-24.229999999999997, 6.66)" d="M 10.26 0 L 0.38 0 L 0.38 -0.4 L 1.44 -0.4 L 1.44 -12.21 L 0.38 -12.21 L 0.38 -12.6 L 9.74 -12.6 L 9.91 -9.04 L 9.6 -9.04 Q 9.21 -9.96 8.86 -10.53 Q 8.51 -11.1 8.04 -11.5 Q 7.57 -11.89 6.99 -12.05 Q 6.41 -12.21 5.58 -12.21 L 5.58 -12.21 L 4.95 -12.21 L 4.95 -6.64 L 5.56 -6.64 Q 6.41 -6.64 6.98 -7.29 Q 7.56 -7.93 7.8 -9 L 7.8 -9 L 8.07 -9 L 8.07 -3.67 L 7.76 -3.67 Q 7.44 -5.02 6.88 -5.59 Q 6.33 -6.17 5.38 -6.17 L 5.38 -6.17 L 4.95 -6.17 L 4.95 -0.4 L 5.63 -0.4 Q 7.29 -0.4 8.46 -1.39 Q 9.62 -2.38 10.05 -3.92 L 10.05 -3.92 L 10.41 -3.92 L 10.26 0 Z M 11.58 -2 L 11.58 -2 Q 11.58 -2.53 11.77 -2.93 Q 11.96 -3.32 12.3 -3.57 Q 12.63 -3.81 13.16 -3.96 Q 13.69 -4.11 14.3 -4.17 Q 14.91 -4.23 15.72 -4.23 L 15.72 -4.23 L 16.24 -4.23 L 16.24 -5.62 Q 16.24 -7.33 16.06 -7.91 Q 15.87 -8.5 15.33 -8.5 L 15.33 -8.5 Q 15.01 -8.5 14.75 -8.33 Q 14.48 -8.17 14.48 -7.78 L 14.48 -7.78 Q 14.48 -7.56 14.59 -7.25 L 14.59 -7.25 L 15.04 -7.25 Q 15.19 -6.85 15.19 -6.44 L 15.19 -6.44 Q 15.19 -5.82 14.73 -5.43 Q 14.28 -5.04 13.6 -5.04 L 13.6 -5.04 Q 12.8 -5.04 12.42 -5.44 Q 12.05 -5.84 12.05 -6.53 L 12.05 -6.53 Q 12.05 -8.75 15.81 -8.75 L 15.81 -8.75 Q 17.95 -8.75 18.77 -8.02 Q 19.59 -7.29 19.59 -5.34 L 19.59 -5.34 L 19.59 -1.7 Q 19.59 -0.76 20.12 -0.76 L 20.12 -0.76 Q 20.73 -0.76 20.84 -2.61 L 20.84 -2.61 L 21.1 -2.59 Q 21.04 -1.01 20.52 -0.42 Q 20 0.18 18.8 0.18 L 18.8 0.18 Q 16.66 0.18 16.32 -1.15 L 16.32 -1.15 Q 16.09 -0.47 15.62 -0.15 Q 15.15 0.18 14.25 0.18 L 14.25 0.18 Q 11.58 0.18 11.58 -2 Z M 15 -2.3 L 15 -2.01 Q 15 -1.08 15.1 -0.81 Q 15.2 -0.54 15.47 -0.54 L 15.47 -0.54 Q 15.76 -0.54 16 -1 Q 16.24 -1.47 16.24 -2.27 L 16.24 -2.27 L 16.24 -3.95 L 16.12 -3.95 Q 15 -3.95 15 -2.3 L 15 -2.3 Z M 26.89 0 L 21.28 0 L 21.28 -0.33 L 22.27 -0.33 L 22.27 -8.24 L 21.28 -8.24 L 21.28 -8.57 L 25.62 -8.57 L 25.62 -6.84 Q 25.86 -7.76 26.52 -8.25 Q 27.18 -8.75 28.03 -8.75 Q 28.88 -8.75 29.41 -8.27 Q 29.94 -7.8 29.94 -6.82 L 29.94 -6.82 Q 29.94 -6.04 29.55 -5.58 Q 29.15 -5.12 28.43 -5.12 L 28.43 -5.12 Q 27.52 -5.12 27.13 -5.66 L 27.13 -5.66 Q 26.91 -5.98 26.91 -6.42 L 26.91 -6.42 Q 26.91 -6.74 27.03 -7.15 L 27.03 -7.15 L 27.68 -7.15 Q 27.83 -7.44 27.83 -7.62 L 27.83 -7.62 Q 27.83 -7.66 27.82 -7.72 L 27.82 -7.72 Q 27.76 -7.93 27.64 -8 Q 27.51 -8.07 27.3 -8.07 L 27.3 -8.07 Q 26.64 -8.07 26.13 -7.21 Q 25.62 -6.35 25.62 -5.15 L 25.62 -5.15 L 25.62 -0.33 L 26.89 -0.33 L 26.89 0 Z M 31.09 -8.24 L 30.09 -8.24 L 30.09 -8.57 L 31.09 -8.57 L 31.09 -10.89 L 34.44 -11.72 L 34.44 -8.57 L 36.77 -8.57 L 36.77 -8.24 L 34.44 -8.24 L 34.44 -2.18 Q 34.44 -1.33 34.61 -0.93 Q 34.78 -0.54 35.23 -0.54 L 35.23 -0.54 Q 35.86 -0.54 36.26 -1.08 Q 36.67 -1.62 36.79 -2.56 L 36.79 -2.56 L 37.1 -2.52 Q 37.04 -1.94 36.87 -1.5 Q 36.71 -1.05 36.39 -0.65 Q 36.07 -0.25 35.5 -0.04 Q 34.94 0.18 34.15 0.18 L 34.15 0.18 Q 33.42 0.18 32.91 0.06 Q 32.39 -0.06 31.96 -0.36 Q 31.53 -0.65 31.31 -1.2 Q 31.09 -1.76 31.09 -2.58 L 31.09 -2.58 L 31.09 -8.24 Z M 42.38 0 L 37.27 0 L 37.27 -0.33 L 38.26 -0.33 L 38.26 -13.17 L 37.27 -13.17 L 37.27 -13.5 L 41.61 -13.5 L 41.61 -6.91 Q 41.74 -7.29 41.92 -7.58 Q 42.09 -7.88 42.39 -8.16 Q 42.69 -8.44 43.17 -8.59 Q 43.65 -8.75 44.29 -8.75 L 44.29 -8.75 Q 47.08 -8.75 47.08 -5.74 L 47.08 -5.74 L 47.08 -0.33 L 48.08 -0.33 L 48.08 0 L 43 0 L 43 -0.33 L 43.73 -0.33 L 43.73 -6.17 Q 43.73 -6.92 43.66 -7.29 Q 43.58 -7.67 43.44 -7.78 Q 43.31 -7.88 43.07 -7.88 L 43.07 -7.88 Q 42.49 -7.88 42.05 -7.12 Q 41.61 -6.36 41.61 -5.29 L 41.61 -5.29 L 41.61 -0.33 L 42.38 -0.33 L 42.38 0 Z" stroke-linecap="round" />
</g>
</g>
</g>
<g transform="matrix(1.505946093956724 0 0 1.5059460939567242 857.8299034603915 399.47362135121335)" id="text-6-path-group"  >
<g style=""  paint-order="stroke"   >
		<g transform="matrix(1 0 0 1 0 0)" id="text-6-path-0"  >
<path style="stroke: none; stroke-width: 1; stroke-dasharray: none; stroke-linecap: butt; stroke-dashoffset: 0; stroke-linejoin: miter; stroke-miterlimit: 4; fill: rgb(183,233,245); fill-rule: nonzero; opacity: 1;"  paint-order="stroke"  transform=" translate(-51.21, 4.705)" d="M 1.17 -8.24 L 0.11 -8.24 L 0.11 -8.57 L 4.52 -8.57 L 4.52 -0.33 L 5.53 -0.33 L 5.53 0 L 0.18 0 L 0.18 -0.33 L 1.17 -0.33 L 1.17 -8.24 Z M 1.06 -11.49 L 1.06 -11.49 Q 1.06 -12.22 1.51 -12.69 Q 1.95 -13.16 2.9 -13.16 L 2.9 -13.16 Q 3.75 -13.16 4.21 -12.74 Q 4.68 -12.32 4.68 -11.5 L 4.68 -11.5 Q 4.68 -10.74 4.23 -10.27 Q 3.79 -9.81 2.87 -9.81 L 2.87 -9.81 Q 2.35 -9.81 1.97 -9.96 Q 1.6 -10.11 1.41 -10.37 Q 1.22 -10.63 1.14 -10.9 Q 1.06 -11.17 1.06 -11.49 Z M 6.96 -3.06 L 6.96 -3.06 Q 6.96 -5.12 7.85 -6.77 Q 8.74 -8.41 10.38 -9.35 Q 12.01 -10.29 14.11 -10.29 L 14.11 -10.29 Q 15.45 -10.29 16.58 -9.9 Q 17.71 -9.51 18.53 -8.78 Q 19.35 -8.04 19.81 -6.92 Q 20.27 -5.8 20.27 -4.39 L 20.27 -4.39 Q 20.27 -2.14 19.32 -1.01 Q 18.37 0.12 16.65 0.12 L 16.65 0.12 Q 15.59 0.12 15.06 -0.22 Q 14.53 -0.57 14.29 -1.17 L 14.29 -1.17 Q 13.82 0.09 12.52 0.09 L 12.52 0.09 Q 11.27 0.09 10.58 -0.71 Q 9.9 -1.5 9.9 -2.65 L 9.9 -2.65 Q 9.9 -3.56 10.12 -4.32 Q 10.34 -5.08 10.71 -5.59 Q 11.07 -6.09 11.55 -6.44 Q 12.02 -6.79 12.52 -6.95 Q 13.01 -7.11 13.5 -7.11 L 13.5 -7.11 Q 14.03 -7.11 14.37 -6.94 Q 14.71 -6.78 15.06 -6.44 L 15.06 -6.44 L 15.37 -6.99 L 17.33 -6.99 L 16.75 -3.71 Q 16.54 -2.42 16.54 -1.8 L 16.54 -1.8 Q 16.54 -1.07 16.75 -0.73 Q 16.96 -0.4 17.57 -0.4 L 17.57 -0.4 Q 17.93 -0.4 18.31 -0.65 Q 18.69 -0.9 19.03 -1.36 Q 19.37 -1.83 19.59 -2.59 Q 19.8 -3.35 19.8 -4.26 L 19.8 -4.26 Q 19.8 -6.89 18.27 -8.39 Q 16.74 -9.9 13.98 -9.9 L 13.98 -9.9 Q 12.69 -9.9 11.52 -9.44 Q 10.34 -8.97 9.44 -8.13 Q 8.53 -7.28 8 -5.98 Q 7.47 -4.68 7.47 -3.13 L 7.47 -3.13 Q 7.47 -1.85 7.85 -0.81 Q 8.23 0.22 8.86 0.89 Q 9.49 1.56 10.35 2.02 Q 11.21 2.48 12.13 2.67 Q 13.05 2.87 14.05 2.87 L 14.05 2.87 Q 16.48 2.87 18.25 1.37 L 18.25 1.37 L 18.54 1.7 Q 17.74 2.44 16.51 2.87 Q 15.28 3.3 14.04 3.3 L 14.04 3.3 Q 12.9 3.3 11.87 3.06 Q 10.85 2.83 9.94 2.32 Q 9.04 1.82 8.38 1.09 Q 7.73 0.35 7.34 -0.71 Q 6.96 -1.78 6.96 -3.06 Z M 11.99 -1.8 L 11.99 -1.8 Q 11.99 -1 12.21 -0.65 Q 12.44 -0.29 12.9 -0.29 L 12.9 -0.29 Q 13.42 -0.29 13.83 -0.87 Q 14.23 -1.44 14.36 -2.34 L 14.36 -2.34 L 14.98 -6.2 Q 14.47 -6.73 13.79 -6.73 L 13.79 -6.73 Q 13.36 -6.73 13.03 -6.34 Q 12.69 -5.95 12.5 -5.39 Q 12.31 -4.83 12.19 -4.12 Q 12.07 -3.4 12.03 -2.84 Q 11.99 -2.28 11.99 -1.8 Z M 26.82 0 L 21.7 0 L 21.7 -0.33 L 22.69 -0.33 L 22.69 -13.17 L 21.7 -13.17 L 21.7 -13.5 L 26.04 -13.5 L 26.04 -6.91 Q 26.17 -7.29 26.35 -7.58 Q 26.53 -7.88 26.82 -8.16 Q 27.12 -8.44 27.6 -8.59 Q 28.08 -8.75 28.72 -8.75 L 28.72 -8.75 Q 31.52 -8.75 31.52 -5.74 L 31.52 -5.74 L 31.52 -0.33 L 32.52 -0.33 L 32.52 0 L 27.43 0 L 27.43 -0.33 L 28.17 -0.33 L 28.17 -6.17 Q 28.17 -6.92 28.09 -7.29 Q 28.01 -7.67 27.88 -7.78 Q 27.75 -7.88 27.5 -7.88 L 27.5 -7.88 Q 26.92 -7.88 26.48 -7.12 Q 26.04 -6.36 26.04 -5.29 L 26.04 -5.29 L 26.04 -0.33 L 26.82 -0.33 L 26.82 0 Z M 33.78 -8.24 L 32.71 -8.24 L 32.71 -8.57 L 37.13 -8.57 L 37.13 -0.33 L 38.14 -0.33 L 38.14 0 L 32.78 0 L 32.78 -0.33 L 33.78 -0.33 L 33.78 -8.24 Z M 33.67 -11.49 L 33.67 -11.49 Q 33.67 -12.22 34.11 -12.69 Q 34.56 -13.16 35.51 -13.16 L 35.51 -13.16 Q 36.36 -13.16 36.82 -12.74 Q 37.28 -12.32 37.28 -11.5 L 37.28 -11.5 Q 37.28 -10.74 36.84 -10.27 Q 36.4 -9.81 35.47 -9.81 L 35.47 -9.81 Q 34.95 -9.81 34.58 -9.96 Q 34.21 -10.11 34.02 -10.37 Q 33.83 -10.63 33.75 -10.9 Q 33.67 -11.17 33.67 -11.49 Z M 39.48 -8.24 L 38.42 -8.24 L 38.42 -8.57 L 42.83 -8.57 L 42.83 -0.33 L 43.84 -0.33 L 43.84 0 L 38.49 0 L 38.49 -0.33 L 39.48 -0.33 L 39.48 -8.24 Z M 39.38 -11.49 L 39.38 -11.49 Q 39.38 -12.22 39.82 -12.69 Q 40.26 -13.16 41.21 -13.16 L 41.21 -13.16 Q 42.06 -13.16 42.53 -12.74 Q 42.99 -12.32 42.99 -11.5 L 42.99 -11.5 Q 42.99 -10.74 42.54 -10.27 Q 42.1 -9.81 41.18 -9.81 L 41.18 -9.81 Q 40.66 -9.81 40.28 -9.96 Q 39.91 -10.11 39.72 -10.37 Q 39.53 -10.63 39.45 -10.9 Q 39.38 -11.17 39.38 -11.49 Z M 45.18 -8.24 L 44.14 -8.24 L 44.14 -8.57 L 45.18 -8.57 L 45.18 -8.64 Q 45.18 -9.91 45.4 -10.85 Q 45.62 -11.79 46.12 -12.5 Q 46.61 -13.2 47.45 -13.56 Q 48.3 -13.91 49.49 -13.91 L 49.49 -13.91 Q 50.29 -13.91 50.88 -13.73 Q 51.47 -13.54 51.77 -13.23 Q 52.08 -12.92 52.21 -12.59 Q 52.35 -12.26 52.35 -11.9 L 52.35 -11.9 Q 52.35 -11.13 51.93 -10.73 Q 51.52 -10.34 50.85 -10.34 L 50.85 -10.34 Q 50.15 -10.34 49.78 -10.68 Q 49.41 -11.03 49.41 -11.61 L 49.41 -11.61 Q 49.41 -11.91 49.53 -12.38 L 49.53 -12.38 L 50.21 -12.38 Q 50.33 -12.71 50.33 -12.94 L 50.33 -12.94 Q 50.33 -13.02 50.32 -13.1 L 50.32 -13.1 Q 50.26 -13.36 50.08 -13.48 Q 49.9 -13.61 49.65 -13.61 L 49.65 -13.61 Q 49.29 -13.61 49.06 -13.47 Q 48.84 -13.33 48.73 -13.03 Q 48.61 -12.74 48.57 -12.38 Q 48.53 -12.01 48.53 -11.45 L 48.53 -11.45 L 48.53 -8.57 L 50.91 -8.57 L 50.91 -8.24 L 48.53 -8.24 L 48.53 -0.33 L 50.73 -0.33 L 50.73 0 L 44.19 0 L 44.19 -0.33 L 45.18 -0.33 L 45.18 -8.24 Z M 50.87 -4.25 L 50.87 -4.25 Q 50.87 -6.43 52.1 -7.59 Q 53.32 -8.75 55.53 -8.75 L 55.53 -8.75 Q 57.8 -8.75 58.9 -7.67 Q 59.99 -6.6 59.99 -4.41 L 59.99 -4.41 Q 59.99 -2.14 58.89 -0.98 Q 57.78 0.18 55.42 0.18 L 55.42 0.18 Q 53.18 0.18 52.03 -0.97 Q 50.87 -2.12 50.87 -4.25 Z M 54.33 -4.98 L 54.33 -3.59 Q 54.33 -3.12 54.33 -2.83 Q 54.33 -2.55 54.35 -2.17 Q 54.36 -1.79 54.4 -1.57 Q 54.43 -1.34 54.48 -1.08 Q 54.54 -0.82 54.62 -0.67 Q 54.7 -0.53 54.82 -0.39 Q 54.93 -0.25 55.09 -0.2 Q 55.26 -0.14 55.46 -0.14 L 55.46 -0.14 Q 55.71 -0.14 55.89 -0.22 Q 56.07 -0.3 56.19 -0.51 Q 56.31 -0.72 56.38 -0.95 Q 56.45 -1.19 56.49 -1.63 Q 56.52 -2.07 56.53 -2.47 Q 56.54 -2.87 56.54 -3.54 L 56.54 -3.54 L 56.54 -5.08 Q 56.54 -5.5 56.54 -5.78 Q 56.53 -6.06 56.52 -6.42 Q 56.5 -6.77 56.47 -7 Q 56.43 -7.22 56.39 -7.48 Q 56.34 -7.73 56.26 -7.88 Q 56.18 -8.03 56.07 -8.17 Q 55.96 -8.3 55.81 -8.36 Q 55.66 -8.42 55.48 -8.42 L 55.48 -8.42 Q 55.25 -8.42 55.07 -8.33 Q 54.89 -8.24 54.77 -8.1 Q 54.65 -7.96 54.56 -7.7 Q 54.47 -7.44 54.43 -7.2 Q 54.39 -6.95 54.36 -6.55 Q 54.33 -6.14 54.33 -5.82 Q 54.33 -5.49 54.33 -4.98 L 54.33 -4.98 Z M 65.65 0 L 60.54 0 L 60.54 -0.33 L 61.52 -0.33 L 61.52 -8.24 L 60.54 -8.24 L 60.54 -8.57 L 64.87 -8.57 L 64.87 -6.91 Q 65 -7.29 65.18 -7.58 Q 65.36 -7.88 65.65 -8.16 Q 65.95 -8.44 66.43 -8.59 Q 66.91 -8.75 67.55 -8.75 L 67.55 -8.75 Q 70.35 -8.75 70.35 -5.74 L 70.35 -5.74 L 70.35 -0.33 L 71.35 -0.33 L 71.35 0 L 66.26 0 L 66.26 -0.33 L 67 -0.33 L 67 -6.17 Q 67 -6.92 66.92 -7.29 Q 66.84 -7.67 66.71 -7.78 Q 66.58 -7.88 66.33 -7.88 L 66.33 -7.88 Q 65.75 -7.88 65.31 -7.12 Q 64.87 -6.36 64.87 -5.29 L 64.87 -5.29 L 64.87 -0.33 L 65.65 -0.33 L 65.65 0 Z M 71.23 2.58 L 71.23 2.58 Q 71.23 1.52 72.61 1.13 L 72.61 1.13 L 73.69 1.62 Q 73.55 2.14 73.55 2.61 L 73.55 2.61 Q 73.55 4.16 75.85 4.16 L 75.85 4.16 Q 77.25 4.16 78.01 3.64 Q 78.77 3.12 78.77 2.25 L 78.77 2.25 Q 78.77 1.79 78.59 1.55 Q 78.42 1.3 77.92 1.17 Q 77.42 1.05 76.48 1.05 L 76.48 1.05 L 74.73 1.05 Q 73.97 1.05 73.41 0.9 Q 72.85 0.76 72.56 0.5 Q 72.27 0.25 72.15 -0.03 Q 72.02 -0.31 72.02 -0.63 L 72.02 -0.63 Q 72.02 -1.13 72.25 -1.53 Q 72.49 -1.92 72.89 -2.23 Q 73.28 -2.54 74.07 -3.01 L 74.07 -3.01 Q 73 -3.3 72.49 -3.96 Q 71.98 -4.62 71.98 -5.74 L 71.98 -5.74 Q 71.98 -7.09 72.95 -7.92 Q 73.92 -8.75 75.87 -8.75 L 75.87 -8.75 Q 76.52 -8.75 76.97 -8.64 Q 77.41 -8.54 77.86 -8.3 L 77.86 -8.3 Q 77.76 -8.79 77.76 -9.18 L 77.76 -9.18 Q 77.76 -9.7 77.92 -10.09 Q 78.09 -10.49 78.37 -10.69 Q 78.64 -10.9 78.93 -11 Q 79.22 -11.09 79.52 -11.09 L 79.52 -11.09 Q 80.17 -11.09 80.58 -10.74 Q 80.98 -10.39 80.98 -9.76 L 80.98 -9.76 Q 80.98 -9.17 80.66 -8.87 Q 80.33 -8.57 79.85 -8.57 L 79.85 -8.57 Q 79.43 -8.57 79.13 -8.82 Q 78.83 -9.06 78.8 -9.5 L 78.8 -9.5 L 79.3 -9.81 Q 79.35 -10.05 79.24 -10.21 Q 79.14 -10.37 78.87 -10.37 L 78.87 -10.37 Q 78.1 -10.37 78.1 -9.18 L 78.1 -9.18 Q 78.1 -8.71 78.22 -8.1 L 78.22 -8.1 Q 78.86 -7.68 79.22 -7.15 Q 79.59 -6.63 79.59 -5.82 L 79.59 -5.82 Q 79.59 -4.32 78.6 -3.52 Q 77.62 -2.73 75.92 -2.73 L 75.92 -2.73 Q 75.26 -2.73 74.46 -2.88 L 74.46 -2.88 Q 73.67 -2.39 73.67 -2.13 L 73.67 -2.13 Q 73.67 -2.04 73.75 -1.99 Q 73.84 -1.93 74.1 -1.9 Q 74.36 -1.87 74.82 -1.87 L 74.82 -1.87 L 76.66 -1.87 Q 77.32 -1.87 77.87 -1.81 Q 78.42 -1.74 78.97 -1.54 Q 79.52 -1.34 79.9 -1.03 Q 80.27 -0.71 80.51 -0.18 Q 80.75 0.35 80.75 1.06 L 80.75 1.06 Q 80.75 1.83 80.46 2.44 Q 80.17 3.06 79.58 3.52 Q 78.98 3.99 77.99 4.25 Q 77 4.5 75.67 4.5 L 75.67 4.5 Q 73.4 4.5 72.31 3.99 Q 71.23 3.49 71.23 2.58 Z M 74.99 -6.13 L 74.99 -5.17 Q 74.99 -4.34 75.09 -3.88 Q 75.2 -3.41 75.37 -3.25 Q 75.54 -3.09 75.83 -3.09 L 75.83 -3.09 Q 76.1 -3.09 76.26 -3.23 Q 76.41 -3.38 76.52 -3.87 Q 76.62 -4.36 76.62 -5.26 L 76.62 -5.26 L 76.62 -6.13 Q 76.62 -7.1 76.52 -7.62 Q 76.42 -8.14 76.27 -8.28 Q 76.12 -8.42 75.85 -8.42 L 75.85 -8.42 Q 75.57 -8.42 75.4 -8.27 Q 75.23 -8.11 75.11 -7.59 Q 74.99 -7.08 74.99 -6.13 L 74.99 -6.13 Z M 81.61 -1.37 L 81.61 -1.37 Q 81.61 -2.06 82.02 -2.5 Q 82.42 -2.95 83.15 -2.95 L 83.15 -2.95 Q 83.89 -2.95 84.33 -2.57 Q 84.76 -2.19 84.76 -1.42 L 84.76 -1.42 Q 84.76 -0.69 84.36 -0.26 Q 83.95 0.18 83.21 0.18 L 83.21 0.18 Q 82.38 0.18 81.99 -0.28 Q 81.61 -0.74 81.61 -1.37 Z M 85.47 -4.17 L 85.47 -4.17 Q 85.47 -6.41 86.74 -7.58 Q 88.01 -8.75 90.28 -8.75 L 90.28 -8.75 Q 91.88 -8.75 92.72 -8.13 Q 93.57 -7.51 93.57 -6.46 L 93.57 -6.46 Q 93.57 -5.64 93.16 -5.21 Q 92.76 -4.77 92.07 -4.77 L 92.07 -4.77 Q 91.34 -4.77 90.91 -5.15 Q 90.47 -5.54 90.47 -6.27 L 90.47 -6.27 Q 90.47 -6.59 90.56 -6.91 L 90.56 -6.91 L 91.16 -6.91 Q 91.28 -7.27 91.28 -7.56 L 91.28 -7.56 Q 91.28 -8 91.05 -8.21 Q 90.82 -8.42 90.42 -8.42 L 90.42 -8.42 Q 89.63 -8.42 89.29 -7.56 Q 88.95 -6.71 88.95 -4.7 L 88.95 -4.7 L 88.95 -3.76 Q 88.95 -1.98 89.34 -1.2 Q 89.74 -0.43 90.76 -0.43 L 90.76 -0.43 Q 91.34 -0.43 91.81 -0.65 Q 92.29 -0.88 92.58 -1.25 Q 92.87 -1.62 93.05 -2 Q 93.22 -2.38 93.3 -2.79 L 93.3 -2.79 L 93.62 -2.75 Q 93.55 -2.41 93.46 -2.14 Q 93.37 -1.87 93.19 -1.5 Q 93.01 -1.13 92.74 -0.86 Q 92.46 -0.59 92.07 -0.34 Q 91.68 -0.09 91.09 0.04 Q 90.51 0.18 89.79 0.18 L 89.79 0.18 Q 87.71 0.18 86.59 -0.95 Q 85.47 -2.07 85.47 -4.17 Z M 94.17 -4.17 L 94.17 -4.17 Q 94.17 -6.41 95.44 -7.58 Q 96.71 -8.75 98.97 -8.75 L 98.97 -8.75 Q 100.57 -8.75 101.42 -8.13 Q 102.26 -7.51 102.26 -6.46 L 102.26 -6.46 Q 102.26 -5.64 101.86 -5.21 Q 101.45 -4.77 100.77 -4.77 L 100.77 -4.77 Q 100.04 -4.77 99.6 -5.15 Q 99.17 -5.54 99.17 -6.27 L 99.17 -6.27 Q 99.17 -6.59 99.25 -6.91 L 99.25 -6.91 L 99.85 -6.91 Q 99.98 -7.27 99.98 -7.56 L 99.98 -7.56 Q 99.98 -8 99.74 -8.21 Q 99.51 -8.42 99.11 -8.42 L 99.11 -8.42 Q 98.32 -8.42 97.98 -7.56 Q 97.64 -6.71 97.64 -4.7 L 97.64 -4.7 L 97.64 -3.76 Q 97.64 -1.98 98.03 -1.2 Q 98.43 -0.43 99.46 -0.43 L 99.46 -0.43 Q 100.04 -0.43 100.51 -0.65 Q 100.98 -0.88 101.27 -1.25 Q 101.57 -1.62 101.74 -2 Q 101.91 -2.38 102 -2.79 L 102 -2.79 L 102.31 -2.75 Q 102.24 -2.41 102.15 -2.14 Q 102.06 -1.87 101.88 -1.5 Q 101.71 -1.13 101.43 -0.86 Q 101.15 -0.59 100.76 -0.34 Q 100.37 -0.09 99.79 0.04 Q 99.2 0.18 98.48 0.18 L 98.48 0.18 Q 96.4 0.18 95.28 -0.95 Q 94.17 -2.07 94.17 -4.17 Z" stroke-linecap="round" />
</g>
</g>
</g>
<g transform="matrix(1.505946093956724 0 0 1.5059460939567242 866.1552558411423 438.1046959006561)" id="text-7-path-group"  >
<g style=""  paint-order="stroke"   >
		<g transform="matrix(1 0 0 1 0 0)" id="text-7-path-0"  >
<path style="stroke: none; stroke-width: 1; stroke-dasharray: none; stroke-linecap: butt; stroke-dashoffset: 0; stroke-linejoin: miter; stroke-miterlimit: 4; fill: rgb(183,233,245); fill-rule: nonzero; opacity: 1;"  paint-order="stroke"  transform=" translate(-45.685, 4.705)" d="M 1.17 -8.24 L 0.11 -8.24 L 0.11 -8.57 L 4.52 -8.57 L 4.52 -0.33 L 5.53 -0.33 L 5.53 0 L 0.18 0 L 0.18 -0.33 L 1.17 -0.33 L 1.17 -8.24 Z M 1.06 -11.49 L 1.06 -11.49 Q 1.06 -12.22 1.51 -12.69 Q 1.95 -13.16 2.9 -13.16 L 2.9 -13.16 Q 3.75 -13.16 4.21 -12.74 Q 4.68 -12.32 4.68 -11.5 L 4.68 -11.5 Q 4.68 -10.74 4.23 -10.27 Q 3.79 -9.81 2.87 -9.81 L 2.87 -9.81 Q 2.35 -9.81 1.97 -9.96 Q 1.6 -10.11 1.41 -10.37 Q 1.22 -10.63 1.14 -10.9 Q 1.06 -11.17 1.06 -11.49 Z M 6.51 -1.37 L 6.51 -1.37 Q 6.51 -2.06 6.92 -2.5 Q 7.33 -2.95 8.06 -2.95 L 8.06 -2.95 Q 8.8 -2.95 9.23 -2.57 Q 9.67 -2.19 9.67 -1.42 L 9.67 -1.42 Q 9.67 -0.69 9.26 -0.26 Q 8.86 0.18 8.11 0.18 L 8.11 0.18 Q 7.29 0.18 6.9 -0.28 Q 6.51 -0.74 6.51 -1.37 Z M 15.76 0 L 10.64 0 L 10.64 -0.33 L 11.64 -0.33 L 11.64 -13.17 L 10.64 -13.17 L 10.64 -13.5 L 14.99 -13.5 L 14.99 -6.91 Q 15.12 -7.29 15.29 -7.58 Q 15.47 -7.88 15.77 -8.16 Q 16.07 -8.44 16.55 -8.59 Q 17.02 -8.75 17.67 -8.75 L 17.67 -8.75 Q 20.46 -8.75 20.46 -5.74 L 20.46 -5.74 L 20.46 -0.33 L 21.46 -0.33 L 21.46 0 L 16.37 0 L 16.37 -0.33 L 17.11 -0.33 L 17.11 -6.17 Q 17.11 -6.92 17.03 -7.29 Q 16.95 -7.67 16.82 -7.78 Q 16.69 -7.88 16.44 -7.88 L 16.44 -7.88 Q 15.86 -7.88 15.42 -7.12 Q 14.99 -6.36 14.99 -5.29 L 14.99 -5.29 L 14.99 -0.33 L 15.76 -0.33 L 15.76 0 Z M 22.72 -8.24 L 21.66 -8.24 L 21.66 -8.57 L 26.07 -8.57 L 26.07 -0.33 L 27.08 -0.33 L 27.08 0 L 21.73 0 L 21.73 -0.33 L 22.72 -0.33 L 22.72 -8.24 Z M 22.61 -11.49 L 22.61 -11.49 Q 22.61 -12.22 23.06 -12.69 Q 23.5 -13.16 24.45 -13.16 L 24.45 -13.16 Q 25.3 -13.16 25.77 -12.74 Q 26.23 -12.32 26.23 -11.5 L 26.23 -11.5 Q 26.23 -10.74 25.78 -10.27 Q 25.34 -9.81 24.42 -9.81 L 24.42 -9.81 Q 23.9 -9.81 23.52 -9.96 Q 23.15 -10.11 22.96 -10.37 Q 22.77 -10.63 22.69 -10.9 Q 22.61 -11.17 22.61 -11.49 Z M 28.42 -8.24 L 27.36 -8.24 L 27.36 -8.57 L 31.77 -8.57 L 31.77 -0.33 L 32.78 -0.33 L 32.78 0 L 27.43 0 L 27.43 -0.33 L 28.42 -0.33 L 28.42 -8.24 Z M 28.32 -11.49 L 28.32 -11.49 Q 28.32 -12.22 28.76 -12.69 Q 29.21 -13.16 30.16 -13.16 L 30.16 -13.16 Q 31.01 -13.16 31.47 -12.74 Q 31.93 -12.32 31.93 -11.5 L 31.93 -11.5 Q 31.93 -10.74 31.49 -10.27 Q 31.04 -9.81 30.12 -9.81 L 30.12 -9.81 Q 29.6 -9.81 29.23 -9.96 Q 28.85 -10.11 28.67 -10.37 Q 28.48 -10.63 28.4 -10.9 Q 28.32 -11.17 28.32 -11.49 Z M 34.13 -8.24 L 33.08 -8.24 L 33.08 -8.57 L 34.13 -8.57 L 34.13 -8.64 Q 34.13 -9.91 34.35 -10.85 Q 34.57 -11.79 35.06 -12.5 Q 35.55 -13.2 36.4 -13.56 Q 37.24 -13.91 38.43 -13.91 L 38.43 -13.91 Q 39.23 -13.91 39.82 -13.73 Q 40.41 -13.54 40.72 -13.23 Q 41.02 -12.92 41.15 -12.59 Q 41.29 -12.26 41.29 -11.9 L 41.29 -11.9 Q 41.29 -11.13 40.88 -10.73 Q 40.46 -10.34 39.8 -10.34 L 39.8 -10.34 Q 39.09 -10.34 38.72 -10.68 Q 38.36 -11.03 38.36 -11.61 L 38.36 -11.61 Q 38.36 -11.91 38.47 -12.38 L 38.47 -12.38 L 39.16 -12.38 Q 39.28 -12.71 39.28 -12.94 L 39.28 -12.94 Q 39.28 -13.02 39.26 -13.1 L 39.26 -13.1 Q 39.2 -13.36 39.02 -13.48 Q 38.85 -13.61 38.59 -13.61 L 38.59 -13.61 Q 38.23 -13.61 38.01 -13.47 Q 37.78 -13.33 37.67 -13.03 Q 37.56 -12.74 37.52 -12.38 Q 37.48 -12.01 37.48 -11.45 L 37.48 -11.45 L 37.48 -8.57 L 39.85 -8.57 L 39.85 -8.24 L 37.48 -8.24 L 37.48 -0.33 L 39.67 -0.33 L 39.67 0 L 33.13 0 L 33.13 -0.33 L 34.13 -0.33 L 34.13 -8.24 Z M 39.81 -4.25 L 39.81 -4.25 Q 39.81 -6.43 41.04 -7.59 Q 42.27 -8.75 44.47 -8.75 L 44.47 -8.75 Q 46.74 -8.75 47.84 -7.67 Q 48.94 -6.6 48.94 -4.41 L 48.94 -4.41 Q 48.94 -2.14 47.83 -0.98 Q 46.72 0.18 44.37 0.18 L 44.37 0.18 Q 42.13 0.18 40.97 -0.97 Q 39.81 -2.12 39.81 -4.25 Z M 43.27 -4.98 L 43.27 -3.59 Q 43.27 -3.12 43.27 -2.83 Q 43.28 -2.55 43.29 -2.17 Q 43.3 -1.79 43.34 -1.57 Q 43.37 -1.34 43.43 -1.08 Q 43.48 -0.82 43.56 -0.67 Q 43.65 -0.53 43.76 -0.39 Q 43.88 -0.25 44.04 -0.2 Q 44.2 -0.14 44.4 -0.14 L 44.4 -0.14 Q 44.66 -0.14 44.84 -0.22 Q 45.02 -0.3 45.14 -0.51 Q 45.25 -0.72 45.33 -0.95 Q 45.4 -1.19 45.43 -1.63 Q 45.47 -2.07 45.47 -2.47 Q 45.48 -2.87 45.48 -3.54 L 45.48 -3.54 L 45.48 -5.08 Q 45.48 -5.5 45.48 -5.78 Q 45.47 -6.06 45.46 -6.42 Q 45.45 -6.77 45.41 -7 Q 45.38 -7.22 45.33 -7.48 Q 45.28 -7.73 45.2 -7.88 Q 45.12 -8.03 45.01 -8.17 Q 44.9 -8.3 44.75 -8.36 Q 44.6 -8.42 44.42 -8.42 L 44.42 -8.42 Q 44.19 -8.42 44.01 -8.33 Q 43.83 -8.24 43.71 -8.1 Q 43.59 -7.96 43.51 -7.7 Q 43.42 -7.44 43.37 -7.2 Q 43.33 -6.95 43.3 -6.55 Q 43.28 -6.14 43.27 -5.82 Q 43.27 -5.49 43.27 -4.98 L 43.27 -4.98 Z M 54.59 0 L 49.48 0 L 49.48 -0.33 L 50.47 -0.33 L 50.47 -8.24 L 49.48 -8.24 L 49.48 -8.57 L 53.82 -8.57 L 53.82 -6.91 Q 53.95 -7.29 54.12 -7.58 Q 54.3 -7.88 54.6 -8.16 Q 54.9 -8.44 55.38 -8.59 Q 55.85 -8.75 56.5 -8.75 L 56.5 -8.75 Q 59.29 -8.75 59.29 -5.74 L 59.29 -5.74 L 59.29 -0.33 L 60.29 -0.33 L 60.29 0 L 55.2 0 L 55.2 -0.33 L 55.94 -0.33 L 55.94 -6.17 Q 55.94 -6.92 55.86 -7.29 Q 55.78 -7.67 55.65 -7.78 Q 55.52 -7.88 55.27 -7.88 L 55.27 -7.88 Q 54.69 -7.88 54.25 -7.12 Q 53.82 -6.36 53.82 -5.29 L 53.82 -5.29 L 53.82 -0.33 L 54.59 -0.33 L 54.59 0 Z M 60.17 2.58 L 60.17 2.58 Q 60.17 1.52 61.55 1.13 L 61.55 1.13 L 62.63 1.62 Q 62.49 2.14 62.49 2.61 L 62.49 2.61 Q 62.49 4.16 64.79 4.16 L 64.79 4.16 Q 66.19 4.16 66.95 3.64 Q 67.71 3.12 67.71 2.25 L 67.71 2.25 Q 67.71 1.79 67.54 1.55 Q 67.36 1.3 66.86 1.17 Q 66.37 1.05 65.43 1.05 L 65.43 1.05 L 63.68 1.05 Q 62.91 1.05 62.35 0.9 Q 61.8 0.76 61.51 0.5 Q 61.22 0.25 61.09 -0.03 Q 60.96 -0.31 60.96 -0.63 L 60.96 -0.63 Q 60.96 -1.13 61.2 -1.53 Q 61.44 -1.92 61.83 -2.23 Q 62.23 -2.54 63.01 -3.01 L 63.01 -3.01 Q 61.95 -3.3 61.44 -3.96 Q 60.93 -4.62 60.93 -5.74 L 60.93 -5.74 Q 60.93 -7.09 61.9 -7.92 Q 62.87 -8.75 64.81 -8.75 L 64.81 -8.75 Q 65.46 -8.75 65.91 -8.64 Q 66.36 -8.54 66.81 -8.3 L 66.81 -8.3 Q 66.7 -8.79 66.7 -9.18 L 66.7 -9.18 Q 66.7 -9.7 66.87 -10.09 Q 67.03 -10.49 67.31 -10.69 Q 67.59 -10.9 67.88 -11 Q 68.17 -11.09 68.47 -11.09 L 68.47 -11.09 Q 69.12 -11.09 69.52 -10.74 Q 69.93 -10.39 69.93 -9.76 L 69.93 -9.76 Q 69.93 -9.17 69.6 -8.87 Q 69.28 -8.57 68.79 -8.57 L 68.79 -8.57 Q 68.37 -8.57 68.07 -8.82 Q 67.77 -9.06 67.75 -9.5 L 67.75 -9.5 L 68.25 -9.81 Q 68.29 -10.05 68.19 -10.21 Q 68.08 -10.37 67.82 -10.37 L 67.82 -10.37 Q 67.04 -10.37 67.04 -9.18 L 67.04 -9.18 Q 67.04 -8.71 67.17 -8.1 L 67.17 -8.1 Q 67.8 -7.68 68.17 -7.15 Q 68.54 -6.63 68.54 -5.82 L 68.54 -5.82 Q 68.54 -4.32 67.55 -3.52 Q 66.56 -2.73 64.86 -2.73 L 64.86 -2.73 Q 64.2 -2.73 63.4 -2.88 L 63.4 -2.88 Q 62.61 -2.39 62.61 -2.13 L 62.61 -2.13 Q 62.61 -2.04 62.7 -1.99 Q 62.78 -1.93 63.04 -1.9 Q 63.3 -1.87 63.76 -1.87 L 63.76 -1.87 L 65.6 -1.87 Q 66.26 -1.87 66.81 -1.81 Q 67.36 -1.74 67.91 -1.54 Q 68.47 -1.34 68.84 -1.03 Q 69.21 -0.71 69.45 -0.18 Q 69.69 0.35 69.69 1.06 L 69.69 1.06 Q 69.69 1.83 69.4 2.44 Q 69.12 3.06 68.52 3.52 Q 67.92 3.99 66.93 4.25 Q 65.94 4.5 64.61 4.5 L 64.61 4.5 Q 62.34 4.5 61.26 3.99 Q 60.17 3.49 60.17 2.58 Z M 63.93 -6.13 L 63.93 -5.17 Q 63.93 -4.34 64.04 -3.88 Q 64.14 -3.41 64.31 -3.25 Q 64.49 -3.09 64.78 -3.09 L 64.78 -3.09 Q 65.05 -3.09 65.2 -3.23 Q 65.36 -3.38 65.46 -3.87 Q 65.57 -4.36 65.57 -5.26 L 65.57 -5.26 L 65.57 -6.13 Q 65.57 -7.1 65.47 -7.62 Q 65.36 -8.14 65.21 -8.28 Q 65.07 -8.42 64.79 -8.42 L 64.79 -8.42 Q 64.51 -8.42 64.34 -8.27 Q 64.17 -8.11 64.05 -7.59 Q 63.93 -7.08 63.93 -6.13 L 63.93 -6.13 Z M 70.55 -1.37 L 70.55 -1.37 Q 70.55 -2.06 70.96 -2.5 Q 71.37 -2.95 72.1 -2.95 L 72.1 -2.95 Q 72.83 -2.95 73.27 -2.57 Q 73.71 -2.19 73.71 -1.42 L 73.71 -1.42 Q 73.71 -0.69 73.3 -0.26 Q 72.9 0.18 72.15 0.18 L 72.15 0.18 Q 71.32 0.18 70.94 -0.28 Q 70.55 -0.74 70.55 -1.37 Z M 74.42 -4.17 L 74.42 -4.17 Q 74.42 -6.41 75.69 -7.58 Q 76.96 -8.75 79.22 -8.75 L 79.22 -8.75 Q 80.82 -8.75 81.67 -8.13 Q 82.51 -7.51 82.51 -6.46 L 82.51 -6.46 Q 82.51 -5.64 82.11 -5.21 Q 81.7 -4.77 81.02 -4.77 L 81.02 -4.77 Q 80.29 -4.77 79.85 -5.15 Q 79.42 -5.54 79.42 -6.27 L 79.42 -6.27 Q 79.42 -6.59 79.51 -6.91 L 79.51 -6.91 L 80.1 -6.91 Q 80.23 -7.27 80.23 -7.56 L 80.23 -7.56 Q 80.23 -8 79.99 -8.21 Q 79.76 -8.42 79.37 -8.42 L 79.37 -8.42 Q 78.57 -8.42 78.23 -7.56 Q 77.89 -6.71 77.89 -4.7 L 77.89 -4.7 L 77.89 -3.76 Q 77.89 -1.98 78.28 -1.2 Q 78.68 -0.43 79.71 -0.43 L 79.71 -0.43 Q 80.29 -0.43 80.76 -0.65 Q 81.23 -0.88 81.52 -1.25 Q 81.82 -1.62 81.99 -2 Q 82.16 -2.38 82.25 -2.79 L 82.25 -2.79 L 82.56 -2.75 Q 82.49 -2.41 82.4 -2.14 Q 82.31 -1.87 82.13 -1.5 Q 81.96 -1.13 81.68 -0.86 Q 81.4 -0.59 81.01 -0.34 Q 80.62 -0.09 80.04 0.04 Q 79.45 0.18 78.73 0.18 L 78.73 0.18 Q 76.65 0.18 75.53 -0.95 Q 74.42 -2.07 74.42 -4.17 Z M 83.11 -4.17 L 83.11 -4.17 Q 83.11 -6.41 84.38 -7.58 Q 85.65 -8.75 87.92 -8.75 L 87.92 -8.75 Q 89.52 -8.75 90.36 -8.13 Q 91.2 -7.51 91.2 -6.46 L 91.2 -6.46 Q 91.2 -5.64 90.8 -5.21 Q 90.4 -4.77 89.71 -4.77 L 89.71 -4.77 Q 88.98 -4.77 88.55 -5.15 Q 88.11 -5.54 88.11 -6.27 L 88.11 -6.27 Q 88.11 -6.59 88.2 -6.91 L 88.2 -6.91 L 88.8 -6.91 Q 88.92 -7.27 88.92 -7.56 L 88.92 -7.56 Q 88.92 -8 88.69 -8.21 Q 88.45 -8.42 88.06 -8.42 L 88.06 -8.42 Q 87.27 -8.42 86.92 -7.56 Q 86.58 -6.71 86.58 -4.7 L 86.58 -4.7 L 86.58 -3.76 Q 86.58 -1.98 86.98 -1.2 Q 87.37 -0.43 88.4 -0.43 L 88.4 -0.43 Q 88.98 -0.43 89.45 -0.65 Q 89.92 -0.88 90.22 -1.25 Q 90.51 -1.62 90.68 -2 Q 90.85 -2.38 90.94 -2.79 L 90.94 -2.79 L 91.26 -2.75 Q 91.19 -2.41 91.09 -2.14 Q 91 -1.87 90.83 -1.5 Q 90.65 -1.13 90.37 -0.86 Q 90.1 -0.59 89.71 -0.34 Q 89.31 -0.09 88.73 0.04 Q 88.15 0.18 87.42 0.18 L 87.42 0.18 Q 85.34 0.18 84.23 -0.95 Q 83.11 -2.07 83.11 -4.17 Z" stroke-linecap="round" />
</g>
</g>
</g>
<g transform="matrix(0.4819027500661517 0 0 0.4819027500661517 187.9923346343479 304.18376702807876)" id="maker-logo"  >
<g style=""  paint-order="stroke"   >
		<g transform="matrix(1 0 0 1 0 0)" id="background-logo"  >
<rect style="stroke: none; stroke-width: 0; stroke-dasharray: none; stroke-linecap: butt; stroke-dashoffset: 0; stroke-linejoin: miter; stroke-miterlimit: 4; fill: rgb(183,233,245); fill-rule: nonzero; opacity: 0; visibility: hidden;"  paint-order="stroke"  x="-325" y="-260" rx="0" ry="0" width="650" height="520" />
</g>
		<g transform="matrix(1 0 0 1 0 -64.81557386109944)" id="logo-logo"  >
<g style=""  paint-order="stroke"   >
		<g transform="matrix(1.2712491680901623 0 0 1.2712491680901623 0 0)"  >
<g style=""  paint-order="stroke"   >
		<g transform="matrix(1 0 0 1 0 0)"  >
<linearGradient id="SVGID_37_4_77173" gradientUnits="userSpaceOnUse" gradientTransform="matrix(1 0 0 1 -100 -100)"  x1="0" y1="0" x2="0" y2="200">
<stop offset="0%" style="stop-color:rgb(51,112,255);stop-opacity: 1"/>
<stop offset="100%" style="stop-color:rgb(97,138,234);stop-opacity: 1"/>
</linearGradient>
<rect style="stroke: none; stroke-width: 1; stroke-dasharray: none; stroke-linecap: butt; stroke-dashoffset: 0; stroke-linejoin: miter; stroke-miterlimit: 4; fill: url(#SVGID_37_4_77173); fill-rule: nonzero; opacity: 1;"  paint-order="stroke"  x="-100" y="-100" rx="0" ry="0" width="200" height="200" />
</g>
</g>
</g>
		<g transform="matrix(1.1826914411770408 0 0 0.27009264239804986 200.70776535513937 -55.79318932374383)"  >
<g style=""  paint-order="stroke"   >
		<g transform="matrix(1 0 0 1 0 0)"  >
<rect style="stroke: none; stroke-width: 1; stroke-dasharray: none; stroke-linecap: butt; stroke-dashoffset: 0; stroke-linejoin: miter; stroke-miterlimit: 4; fill: rgb(18,31,64); fill-rule: nonzero; opacity: 1;"  paint-order="stroke"  x="-100" y="-100" rx="0" ry="0" width="200" height="200" />
</g>
</g>
</g>
		<g transform="matrix(1.1826914411770408 0 0 0.27009264239804986 -200.70776535513934 67.87004714600153)"  >
<g style=""  paint-order="stroke"   >
		<g transform="matrix(1 0 0 1 0 0)"  >
<rect style="stroke: none; stroke-width: 1; stroke-dasharray: none; stroke-linecap: butt; stroke-dashoffset: 0; stroke-linejoin: miter; stroke-miterlimit: 4; fill: rgb(18,31,64); fill-rule: nonzero; opacity: 1;"  paint-order="stroke"  x="-100" y="-100" rx="0" ry="0" width="200" height="200" />
</g>
</g>
</g>
		<g transform="matrix(0.2663068677414647 0 0 0.27009264239804953 119.68026776112748 -70.7834394081359)"  >
<g style=""  paint-order="stroke"   >
		<g transform="matrix(1 0 0 1 0 0)"  >
<linearGradient id="SVGID_37_4_77174" gradientUnits="userSpaceOnUse" gradientTransform="matrix(1 0 0 1 -100 -100)"  x1="0" y1="0" x2="0" y2="200">
<stop offset="0%" style="stop-color:rgb(51,112,255);stop-opacity: 1"/>
<stop offset="100%" style="stop-color:rgb(97,138,234);stop-opacity: 1"/>
</linearGradient>
<rect style="stroke: none; stroke-width: 1; stroke-dasharray: none; stroke-linecap: butt; stroke-dashoffset: 0; stroke-linejoin: miter; stroke-miterlimit: 4; fill: url(#SVGID_37_4_77174); fill-rule: nonzero; opacity: 1;"  paint-order="stroke"  x="-100" y="-100" rx="0" ry="0" width="200" height="200" />
</g>
</g>
</g>
		<g transform="matrix(0.2663068677414647 0 0 0.27009264239804953 -114.2133624354816 45.35318521503365)"  >
<g style=""  paint-order="stroke"   >
		<g transform="matrix(1 0 0 1 0 0)"  >
<linearGradient id="SVGID_37_4_77175" gradientUnits="userSpaceOnUse" gradientTransform="matrix(1 0 0 1 -100 -100)"  x1="0" y1="0" x2="0" y2="200">
<stop offset="0%" style="stop-color:rgb(51,112,255);stop-opacity: 1"/>
<stop offset="100%" style="stop-color:rgb(97,138,234);stop-opacity: 1"/>
</linearGradient>
<rect style="stroke: none; stroke-width: 1; stroke-dasharray: none; stroke-linecap: butt; stroke-dashoffset: 0; stroke-linejoin: miter; stroke-miterlimit: 4; fill: url(#SVGID_37_4_77175); fill-rule: nonzero; opacity: 1;"  paint-order="stroke"  x="-100" y="-100" rx="0" ry="0" width="200" height="200" />
</g>
</g>
</g>
		<g transform="matrix(0.5861421580388105 0 0 0.09045419994869816 -145.20263857755137 -87.75303076540624)"  >
<g style=""  paint-order="stroke"   >
		<g transform="matrix(1 0 0 1 0 0)"  >
<rect style="stroke: none; stroke-width: 1; stroke-dasharray: none; stroke-linecap: butt; stroke-dashoffset: 0; stroke-linejoin: miter; stroke-miterlimit: 4; fill: rgb(18,31,64); fill-rule: nonzero; opacity: 1;"  paint-order="stroke"  x="-100" y="-100" rx="0" ry="0" width="200" height="200" />
</g>
</g>
</g>
		<g transform="matrix(0.34734173521569545 0 0 0.07922184029145736 -121.32259629523992 -97.63712364078995)"  >
<g style=""  paint-order="stroke"   >
		<g transform="matrix(1 0 0 1 0 0)"  >
<rect style="stroke: none; stroke-width: 1; stroke-dasharray: none; stroke-linecap: butt; stroke-dashoffset: 0; stroke-linejoin: miter; stroke-miterlimit: 4; fill: rgb(255,255,255); fill-rule: nonzero; opacity: 1;"  paint-order="stroke"  x="-100" y="-100" rx="0" ry="0" width="200" height="200" />
</g>
</g>
</g>
		<g transform="matrix(0.42656002570348567 0 0 0.08735726195764378 129.76501131631403 100.04356865265561)"  >
<g style=""  paint-order="stroke"   >
		<g transform="matrix(1 0 0 1 0 0)"  >
<rect style="stroke: none; stroke-width: 1; stroke-dasharray: none; stroke-linecap: butt; stroke-dashoffset: 0; stroke-linejoin: miter; stroke-miterlimit: 4; fill: rgb(18,31,64); fill-rule: nonzero; opacity: 1;"  paint-order="stroke"  x="-100" y="-100" rx="0" ry="0" width="200" height="200" />
</g>
</g>
</g>
		<g transform="matrix(0.25684433163260006 0 0 0.08411206385455235 120.626521372014 91.30784245689131)"  >
<g style=""  paint-order="stroke"   >
		<g transform="matrix(1 0 0 1 0 0)"  >
<rect style="stroke: none; stroke-width: 1; stroke-dasharray: none; stroke-linecap: butt; stroke-dashoffset: 0; stroke-linejoin: miter; stroke-miterlimit: 4; fill: rgb(255,255,255); fill-rule: nonzero; opacity: 1;"  paint-order="stroke"  x="-100" y="-100" rx="0" ry="0" width="200" height="200" />
</g>
</g>
</g>
		<g transform="matrix(0.10478097621893052 0 0 0.10627052535307807 156.78905215716702 57.2429946106937)"  >
<g style=""  paint-order="stroke"   >
		<g transform="matrix(1 0 0 1 0 0)"  >
<rect style="stroke: none; stroke-width: 1; stroke-dasharray: none; stroke-linecap: butt; stroke-dashoffset: 0; stroke-linejoin: miter; stroke-miterlimit: 4; fill: rgb(255,255,255); fill-rule: nonzero; opacity: 1;"  paint-order="stroke"  x="-100" y="-100" rx="0" ry="0" width="200" height="200" />
</g>
</g>
</g>
		<g transform="matrix(0.10478097621893052 0 0 0.10627052535307807 -145.20263857755137 -60.15638687282811)"  >
<g style=""  paint-order="stroke"   >
		<g transform="matrix(1 0 0 1 0 0)"  >
<rect style="stroke: none; stroke-width: 1; stroke-dasharray: none; stroke-linecap: butt; stroke-dashoffset: 0; stroke-linejoin: miter; stroke-miterlimit: 4; fill: rgb(255,255,255); fill-rule: nonzero; opacity: 1;"  paint-order="stroke"  x="-100" y="-100" rx="0" ry="0" width="200" height="200" />
</g>
</g>
</g>
</g>
</g>
		<g transform="matrix(1 0 0 1 -2.548000000000002 109.11477067011572)" id="text-logo-path-group"  >
<g style=""  paint-order="stroke"   >
		<g transform="matrix(1 0 0 1 0 0)" id="text-logo-path-0"  >
<path style="stroke: rgb(92,224,230); stroke-width: 2; stroke-dasharray: none; stroke-linecap: butt; stroke-dashoffset: 0; stroke-linejoin: miter; stroke-miterlimit: 4; fill: rgb(51,112,255); fill-rule: nonzero; opacity: 1;"  paint-order="stroke"  transform=" translate(-110.81500000000001, 22.775)" d="M 33.54 -38.01 C 33.54 -42.17 30.16 -45.55 26 -45.55 L 21.37 -45.55 L 21.37 -29.95 L 12.12 -28.34 L 12.12 -45.55 L 7.49 -45.55 C 3.33 -45.55 -0.05 -42.17 -0.05 -38.01 L -0.05 0 L 12.12 0 L 12.12 -15.96 L 21.37 -17.58 L 21.37 0 L 33.54 0 Z M 50.65 -45.5 L 38.48 -45.5 L 38.48 0 L 50.65 0 Z M 67.76 -45.5 L 55.59 -45.5 L 55.59 0 L 67.76 0 Z M 84.86 -33.33 L 106.24 -33.33 L 106.24 -38.01 C 106.24 -42.17 102.86 -45.55 98.7 -45.55 L 80.13 -45.55 C 75.97 -45.55 72.59 -42.17 72.59 -38.01 L 72.59 -0.05 L 84.76 -0.05 L 84.76 -15.6 L 98.23 -17.99 L 98.23 -30.32 L 84.76 -27.92 L 84.76 -33.33 Z M 132.55 -14.56 L 123.29 -12.38 L 123.29 -30.99 L 132.55 -33.18 Z M 111.18 -38.01 L 111.18 0 L 144.72 0 L 144.72 -38.01 C 144.72 -42.17 141.34 -45.55 137.18 -45.55 L 118.61 -45.55 C 114.45 -45.55 111.07 -42.17 111.07 -38.01 Z M 183.2 0 L 183.2 -37.96 C 183.2 -42.12 179.82 -45.5 175.66 -45.5 L 149.6 -45.5 L 149.6 0 L 161.77 0 L 161.77 -26.36 L 170.98 -28.55 L 170.98 -28.55 L 170.98 0 L 183.09 0 Z M 200.3 -33.33 L 221.68 -33.33 L 221.68 -37.96 C 221.68 -42.12 218.3 -45.5 214.14 -45.5 L 195.68 -45.5 C 191.52 -45.5 188.14 -42.12 188.14 -37.96 L 188.14 0 L 221.68 0 L 221.68 -29.74 L 202.64 -26.42 L 202.64 -15.24 L 209.51 -16.43 L 209.51 -12.17 L 200.25 -12.17 L 200.25 -33.33 Z" stroke-linecap="round" />
</g>
</g>
</g>
		<g transform="matrix(1 0 0 1 -1.921495783658031 163.48437067011574)" id="tagline-59104337-7afe-43ad-ac95-220cf304e6db-logo-path-group"  >
<g style=""  paint-order="stroke"   >
		<g transform="matrix(0.9999999999999997 0 0 1 0 0)" id="tagline-59104337-7afe-43ad-ac95-220cf304e6db-logo-path-0"  >
<path style="stroke: none; stroke-width: 0; stroke-dasharray: none; stroke-linecap: butt; stroke-dashoffset: 0; stroke-linejoin: miter; stroke-miterlimit: 4; fill: rgb(51,112,255); fill-rule: nonzero; opacity: 1;"  paint-order="stroke"  transform=" translate(-120.62499999999999, 18.375)" d="M 27.09 -30.66 C 27.09 -34.02 24.36 -36.75 21 -36.75 L 6.05 -36.75 C 2.69 -36.75 -0.04 -34.02 -0.04 -30.66 L -0.04 0 L 27.05 0 L 27.05 -15.71 L 17.22 -13.99 L 17.22 -9.87 L 9.74 -9.87 L 9.74 -26.96 L 17.22 -26.96 L 17.22 -23.98 L 27.05 -25.7 L 27.05 -30.7 Z M 42.38 -26.92 L 42.55 -26.92 L 49.81 -28.22 L 59.64 -29.95 L 59.64 -30.66 C 59.64 -34.02 56.91 -36.75 53.55 -36.75 L 38.64 -36.75 C 35.28 -36.75 32.55 -34.02 32.55 -30.66 L 32.55 -11 L 42.38 -12.73 L 49.85 -14.03 L 49.85 -9.79 L 42.38 -8.48 L 32.55 -6.76 L 32.55 0 L 59.64 0 L 59.64 -25.75 L 49.81 -24.02 L 42.38 -22.72 Z M 89.84 -36.75 L 82.07 -36.75 L 72.24 -36.75 L 63.59 -36.75 L 63.59 -32.13 L 63.59 -26.92 L 63.59 -22.13 L 72.24 -23.65 L 72.24 0.04 L 82.07 0.04 L 82.07 -25.37 L 90.68 -26.88 L 90.68 -26.88 L 90.68 -26.88 L 90.68 -36.71 L 89.8 -36.71 Z M 101.51 0 L 101.51 -6.55 L 94.71 -6.55 L 94.71 0 Z M 138.22 -15.79 L 148.05 -24.82 L 148.05 -30.66 C 148.05 -34.02 145.32 -36.75 141.96 -36.75 L 127.05 -36.75 C 123.69 -36.75 120.96 -34.02 120.96 -30.66 L 120.96 -17.93 L 130.75 -26.96 L 135.83 -26.96 L 130.75 -22.3 L 120.92 -13.27 L 120.92 -0.04 L 148.01 -0.04 L 148.01 -9.87 L 131.71 -9.87 L 138.18 -15.83 Z M 169.3 -11.76 L 161.83 -10 L 161.83 -25.03 L 169.3 -26.8 Z M 152.04 -30.7 L 152.04 0 L 179.13 0 L 179.13 -30.7 C 179.13 -34.06 176.4 -36.79 173.04 -36.79 L 158.05 -36.79 C 154.69 -36.79 151.96 -34.06 151.96 -30.7 Z M 200.38 -15.79 L 210.21 -24.82 L 210.21 -30.66 C 210.21 -34.02 207.48 -36.75 204.12 -36.75 L 189.21 -36.75 C 185.85 -36.75 183.12 -34.02 183.12 -30.66 L 183.12 -17.93 L 192.91 -26.96 L 197.99 -26.96 L 192.91 -22.3 L 183.08 -13.27 L 183.08 -0.04 L 210.17 -0.04 L 210.17 -9.87 L 193.87 -9.87 L 200.34 -15.83 Z M 231.46 -11.76 L 223.99 -10 L 223.99 -25.03 L 231.46 -26.8 Z M 214.2 -30.7 L 214.2 0 L 241.29 0 L 241.29 -30.7 C 241.29 -34.06 238.56 -36.79 235.2 -36.79 L 220.21 -36.79 C 216.85 -36.79 214.12 -34.06 214.12 -30.7 Z" stroke-linecap="round" />
</g>
</g>
</g>
		<g transform="matrix(1 0 0 1 -8.5805 -81.04123386109944)" id="tagline-d1f782bb-6f30-4e28-a4a9-696193780e00-logo-path-group"  >
<g style=""  paint-order="stroke"   >
		<g transform="matrix(1 0 0 1 0 0)" id="tagline-d1f782bb-6f30-4e28-a4a9-696193780e00-logo-path-0"  >
<filter id="SVGID_77172" y="-32.19937260369467%" height="164.39874520738934%" x="-23.544842254519676%" width="147.08968450903936%" >
	<feGaussianBlur in="SourceAlpha" stdDeviation="0"></feGaussianBlur>
	<feOffset dx="-3" dy="14" result="oBlur" ></feOffset>
	<feFlood flood-color="rgb(18,23,65)" flood-opacity="1"/>
	<feComposite in2="oBlur" operator="in" />
	<feMerge>
		<feMergeNode></feMergeNode>
		<feMergeNode in="SourceGraphic"></feMergeNode>
	</feMerge>
</filter>
<path style="stroke: rgb(139,156,217); stroke-width: 8; stroke-dasharray: none; stroke-linecap: butt; stroke-dashoffset: 0; stroke-linejoin: miter; stroke-miterlimit: 4; fill: rgb(238,251,251); fill-rule: nonzero; opacity: 1;filter: url(#SVGID_77172);"  paint-order="stroke"  transform=" translate(-42.184999999999995, 57.38)" d="M 84.5 -95.76 C 84.5 -106.24 75.98 -114.76 65.5 -114.76 L 53.84 -114.76 L 53.84 -75.46 L 30.52 -71.39 L 30.52 -114.76 L 18.86 -114.76 C 8.38 -114.76 -0.13 -106.24 -0.13 -95.76 L -0.13 0 L 30.52 0 L 30.52 -40.22 L 53.84 -44.28 L 53.84 0 L 84.5 0 Z" stroke-linecap="round" />
</g>
</g>
</g>
</g>
</g>
</svg>